# Exported from ProBuilder
# http://www.procore3d.com/probuilder
# 10/26/2018 10:45:35 PM

mtllib ./MYBarrelBase.mtl
o MYBarrelBase

g MYBarrelBase
v -1.2375 0 0
v -1.7125 0 0
v -1.2375 0.95 0
v -1.7125 0.95 0
v -1.95 0 -0.2375
v -1.95 0 -0.7125
v -1.95 0.95 -0.2375
v -1.95 0.95 -0.7125
v -1.7125 0 -0.95
v -1.2375 0 -0.95
v -1.7125 0.95 -0.95
v -1.2375 0.95 -0.95
v -1 0 -0.7125
v -1 0 -0.2375
v -1 0.95 -0.7125
v -1 0.95 -0.2375
v -1.7125 0 0
v -1.7125 0.95 0
v -1.95 0 -0.2375
v -1.95 0.95 -0.2375
v -1.2375 0.95 0
v -1.2375 0 0
v -1 0.95 -0.2375
v -1 0 -0.2375
v -1.2375 0 -0.95
v -1.2375 0.95 -0.95
v -1 0 -0.7125
v -1 0.95 -0.7125
v -1.95 0 -0.7125
v -1.95 0.95 -0.7125
v -1.7125 0 -0.95
v -1.7125 0.95 -0.95
v -1.7125 0 -0.95
v -1.95 0 -0.7125
v -1.95 0 -0.2375
v -1.7125 0 0
v -1.2375 0 0
v -1 0 -0.2375
v -1 0 -0.7125
v -1.2375 0 -0.95
v -1.7125 0.95 0
v -1.95 0.95 -0.2375
v -1.95 0.95 -0.7125
v -1.7125 0.95 -0.95
v -1.2375 0.95 -0.95
v -1 0.95 -0.7125
v -1 0.95 -0.2375
v -1.2375 0.95 0

vn 0 0 0.95
vn 0 0 0.95
vn 0 0 0.95
vn 0 0 0.95
vn -0.95 0 0
vn -0.95 0 0
vn -0.95 0 0
vn -0.95 0 0
vn 0 0 -0.95
vn 0 0 -0.95
vn 0 0 -0.95
vn 0 0 -0.95
vn 0.95 0 0
vn 0.95 0 0
vn 0.95 0 0
vn 0.95 0 0
vn -0.6717514 0 0.6717514
vn -0.6717514 0 0.6717514
vn -0.6717514 0 0.6717514
vn -0.6717514 0 0.6717514
vn 0.6717514 0 0.6717514
vn 0.6717514 0 0.6717514
vn 0.6717514 0 0.6717514
vn 0.6717514 0 0.6717514
vn 0.6717514 0 -0.6717514
vn 0.6717514 0 -0.6717514
vn 0.6717514 0 -0.6717514
vn 0.6717514 0 -0.6717514
vn -0.6717514 0 -0.6717514
vn -0.6717514 0 -0.6717514
vn -0.6717514 0 -0.6717514
vn -0.6717514 0 -0.6717514
vn 0 -0.95 0
vn 0 -0.95 0
vn 0 -0.95 0
vn 0 -0.95 0
vn 0 -0.95 0
vn 0 -0.95 0
vn 0 -0.95 0
vn 0 -0.95 0
vn 0 0.95 0
vn 0 0.95 0
vn 0 0.95 0
vn 0 0.95 0
vn 0 0.95 0
vn 0 0.95 0
vn 0 0.95 0
vn 0 0.95 0

vt -0.25 0
vt -0.75 0
vt -0.25 1
vt -0.75 1
vt -0.25 0
vt -0.75 0
vt -0.25 1
vt -0.75 1
vt 0.75 0
vt 0.25 0
vt 0.75 1
vt 0.25 1
vt 0.75 0
vt 0.25 0
vt 0.75 1
vt 0.25 1
vt -0.5303301 0
vt -0.5303301 1
vt -0.8838835 0
vt -0.8838835 1
vt -0.1767767 1
vt -0.1767767 0
vt 0.1767767 1
vt 0.1767767 0
vt 0.8838835 0
vt 0.8838835 1
vt 0.5303301 0
vt 0.5303301 1
vt 0.1767767 0
vt 0.1767767 1
vt -0.1767767 0
vt -0.1767767 1
vt -0.75 -1
vt -1 -0.75
vt -1 -0.25
vt -0.75 0
vt -0.25 0
vt 0 -0.25
vt 0 -0.75
vt -0.25 -1
vt 0.75 0
vt 1 -0.25
vt 1 -0.75
vt 0.75 -1
vt 0.25 -1
vt 0 -0.75
vt 0 -0.25
vt 0.25 0

g MYBarrelBase_0
usemtl Default_Prototype
f 3/3/3 4/4/4 2/2/2 1/1/1
f 7/7/7 8/8/8 6/6/6 5/5/5
f 11/11/11 12/12/12 10/10/10 9/9/9
f 15/15/15 16/16/16 14/14/14 13/13/13
f 20/20/20 19/19/19 17/17/17 18/18/18
f 24/24/24 23/23/23 21/21/21 22/22/22
f 28/28/28 27/27/27 25/25/25 26/26/26
f 32/32/32 31/31/31 29/29/29 30/30/30

g MYBarrelBase_1
usemtl Default_Prototype
f 37/37/37 40/40/40 38/38/38
f 33/33/33 40/40/40 37/37/37
f 35/35/35 33/33/33 37/37/37
f 35/35/35 34/34/34 33/33/33
f 35/35/35 37/37/37 36/36/36
f 40/40/40 39/39/39 38/38/38
f 47/47/47 46/46/46 45/45/45
f 41/41/41 48/48/48 42/42/42
f 44/44/44 43/43/43 42/42/42
f 48/48/48 44/44/44 42/42/42
f 48/48/48 45/45/45 44/44/44
f 47/47/47 45/45/45 48/48/48

