# Exported from ProBuilder
# http://www.procore3d.com/probuilder
# 10/28/2018 2:54:14 PM

mtllib ./MYRecycleFurnace.mtl
o MYRecycleFurnace

g MYRecycleFurnace
v -1.24 -0.2357782 -1.184669
v -3.76 -0.2357782 -1.184669
v -1.24 0.6358658 -1.184669
v -3.76 0.6358658 -1.184669
v -4 -1 -1
v -4 -1 -6
v -4 1.400088 -1
v -4 1.400088 -6
v -4 -1 -6
v -1 -1 -6
v -4 1.400088 -6
v -1 1.400088 -6
v -1 -1 -6
v -1 -1 -1
v -1 1.400088 -6
v -1 1.400088 -1
v -1.971547 1.90629 -3.446116
v -3.028453 1.90629 -3.446116
v -1.971547 1.90629 -4.19215
v -3.028453 1.90629 -4.19215
v -1 -1 -6
v -4 -1 -6
v -1 -1 -1
v -4 -1 -1
v -1 1.400088 -1
v -4 1.400088 -1
v -1.504853 1.400188 -2.160555
v -3.495147 1.400188 -2.160555
v -1 1.400088 -6
v -1 1.400088 -1
v -1.504853 1.400188 -5.477712
v -1.504853 1.400188 -2.160555
v -4 1.400088 -1
v -4 1.400088 -6
v -3.495147 1.400188 -2.160555
v -3.495147 1.400188 -5.477712
v -4 1.400088 -6
v -1 1.400088 -6
v -3.495147 1.400188 -5.477712
v -1.504853 1.400188 -5.477712
v -1.504853 1.400188 -2.160555
v -3.495147 1.400188 -2.160555
v -1.971547 1.400288 -3.446116
v -3.028453 1.400288 -3.446116
v -1.504853 1.400188 -5.477712
v -1.504853 1.400188 -2.160555
v -1.971547 1.400288 -4.19215
v -1.971547 1.400288 -3.446116
v -3.495147 1.400188 -2.160555
v -3.495147 1.400188 -5.477712
v -3.028453 1.400288 -3.446116
v -3.028453 1.400288 -4.19215
v -3.495147 2.171824 -5.477712
v -1.504853 2.171824 -5.477712
v -3.028453 2.171925 -4.19215
v -1.971547 2.171925 -4.19215
v -1.971547 1.400288 -3.446116
v -3.028453 1.400288 -3.446116
v -1.971547 1.90629 -3.446116
v -3.028453 1.90629 -3.446116
v -1.971547 1.400288 -4.19215
v -1.971547 1.400288 -3.446116
v -1.971547 1.90629 -4.19215
v -1.971547 1.90629 -3.446116
v -3.028453 1.400288 -3.446116
v -3.028453 1.400288 -4.19215
v -3.028453 1.90629 -3.446116
v -3.028453 1.90629 -4.19215
v -3.028453 1.400288 -4.19215
v -1.971547 1.400288 -4.19215
v -3.028453 1.90629 -4.19215
v -1.971547 1.90629 -4.19215
v -3.495147 1.400188 -5.477712
v -1.504853 1.400188 -5.477712
v -3.495147 2.171824 -5.477712
v -1.504853 2.171824 -5.477712
v -3.028453 1.400288 -4.19215
v -3.495147 1.400188 -5.477712
v -3.028453 2.171925 -4.19215
v -3.495147 2.171824 -5.477712
v -1.504853 1.400188 -5.477712
v -1.971547 1.400288 -4.19215
v -1.504853 2.171824 -5.477712
v -1.971547 2.171925 -4.19215
v -1.971547 1.400288 -4.19215
v -3.028453 1.400288 -4.19215
v -1.971547 2.171925 -4.19215
v -3.028453 2.171925 -4.19215
v -1 -1 -1
v -4 -1 -1
v -1.24 -0.2357782 -0.9999
v -3.76 -0.2357782 -0.9999
v -1 1.400088 -1
v -1 -1 -1
v -1.24 0.6358658 -0.9999
v -1.24 -0.2357782 -0.9999
v -4 -1 -1
v -4 1.400088 -1
v -3.76 -0.2357782 -0.9999
v -3.76 0.6358658 -0.9999
v -4 1.400088 -1
v -1 1.400088 -1
v -3.76 0.6358658 -0.9999
v -1.24 0.6358658 -0.9999
v -1.24 -0.2357782 -0.9999
v -3.76 -0.2357782 -0.9999
v -1.24 -0.2357782 -1.184669
v -3.76 -0.2357782 -1.184669
v -1.24 0.6358658 -0.9999
v -1.24 -0.2357782 -0.9999
v -1.24 0.6358658 -1.184669
v -1.24 -0.2357782 -1.184669
v -3.76 -0.2357782 -0.9999
v -3.76 0.6358658 -0.9999
v -3.76 -0.2357782 -1.184669
v -3.76 0.6358658 -1.184669
v -3.76 0.6358658 -0.9999
v -1.24 0.6358658 -0.9999
v -3.76 0.6358658 -1.184669
v -1.24 0.6358658 -1.184669

vn 0 0 1
vn 0 0 1
vn 0 0 1
vn 0 0 1
vn -1 0 0
vn -1 0 0
vn -1 0 0
vn -1 0 0
vn 0 0 -0.9999999
vn 0 0 -0.9999999
vn 0 0 -0.9999999
vn 0 0 -0.9999999
vn 1 0 0
vn 1 0 0
vn 1 0 0
vn 1 0 0
vn 0 1 0
vn 0 1 0
vn 0 1 0
vn 0 1 0
vn 0 -1 0
vn 0 -1 0
vn 0 -1 0
vn 0 -1 0
vn 0 1 8.607727E-05
vn 0 1 8.607728E-05
vn 0 1 8.607728E-05
vn 0 1 8.607727E-05
vn 0.0001978743 1 0
vn 0.0001978743 1 0
vn 0.0001978743 1 0
vn 0.0001978743 1 0
vn -0.0001978743 1 0
vn -0.0001978743 0.9999999 0
vn -0.0001978743 1 0
vn -0.0001978743 1 0
vn 0 1 -0.0001912687
vn 0 1 -0.0001912687
vn 0 1 -0.0001912686
vn 0 1 -0.0001912687
vn 0 1 7.770718E-05
vn 0 1 7.770718E-05
vn 0 1 7.770718E-05
vn 0 1 7.770718E-05
vn 0.0002140533 0.9999999 0
vn 0.0002140533 0.9999999 0
vn 0.0002140533 1 0
vn 0.0002140533 0.9999999 0
vn -0.0002140533 0.9999999 0
vn -0.0002140533 0.9999999 0
vn -0.0002140533 1 0
vn -0.0002140533 0.9999999 0
vn 0 1 -7.789263E-05
vn 0 0.9999999 -7.789263E-05
vn 0 1 -7.789263E-05
vn 0 1 -7.789263E-05
vn 0 0 1
vn 0 0 1
vn 0 0 1
vn 0 0 1
vn 0.9999999 0 0
vn 0.9999999 0 0
vn 0.9999999 0 0
vn 0.9999999 0 0
vn -0.9999999 0 0
vn -0.9999999 0 0
vn -0.9999999 0 0
vn -0.9999999 0 0
vn 0 0 -1
vn 0 0 -1
vn 0 0 -1
vn 0 0 -1
vn 0 0 -1
vn 0 0 -1
vn 0 0 -1
vn 0 0 -1
vn -0.9399772 0 0.3412372
vn -0.9399772 0 0.3412372
vn -0.9399772 0 0.3412372
vn -0.9399772 0 0.3412372
vn 0.9399772 0 0.3412373
vn 0.9399772 0 0.3412372
vn 0.9399772 0 0.3412372
vn 0.9399772 0 0.3412373
vn 0 0 1
vn 0 0 1
vn 0 0 1
vn 0 0 1
vn 0 -0.0001308521 1
vn 0 -0.0001308521 1
vn 0 -0.0001308521 1
vn 0 -0.0001308521 1
vn 0.0004166666 0 0.9999999
vn 0.0004166666 0 0.9999999
vn 0.0004166667 0 0.9999999
vn 0.0004166666 0 0.9999999
vn -0.0004166666 0 0.9999999
vn -0.0004166666 0 0.9999999
vn -0.0004166666 0 0.9999999
vn -0.0004166666 0 0.9999999
vn 0 0.000130852 1
vn 0 0.000130852 1
vn 0 0.000130852 1
vn 0 0.000130852 1
vn 0 1 0
vn 0 1 0
vn 0 1 0
vn 0 1 0
vn -1 0 0
vn -1 0 0
vn -1 0 0
vn -1 0 0
vn 1 0 0
vn 1 0 0
vn 1 0 0
vn 1 0 0
vn 0 -1 0
vn 0 -1 0
vn 0 -1 0
vn 0 -1 0

vt -0.24 0.7642218
vt -2.76 0.7642218
vt -0.24 1.635866
vt -2.76 1.635866
vt 0 0
vt -5 0
vt 0 2.400088
vt -5 2.400088
vt 3 0
vt 0 0
vt 3 2.400088
vt 0 2.400088
vt 5 0
vt 0 0
vt 5 2.400088
vt 0 2.400088
vt 0.9715466 -2.446116
vt 2.028453 -2.446116
vt 0.9715466 -3.19215
vt 2.028453 -3.19215
vt 0 -5
vt -3 -5
vt 0 0
vt -3 0
vt 0 -0.000206593
vt 3 -0.000206593
vt 0.5048527 -1.160761
vt 2.495147 -1.160761
vt 0.0004749157 -5
vt 0.0004749157 0
vt 0.5053276 -4.477712
vt 0.5053276 -1.160555
vt 2.999525 0
vt 2.999525 -5
vt 2.494672 -1.160555
vt 2.494672 -4.477712
vt 3 -4.999541
vt 0 -4.999541
vt 2.495147 -4.477252
vt 0.5048527 -4.477252
vt 0.5048527 -1.160741
vt 2.495147 -1.160741
vt 0.9715466 -2.446303
vt 2.028453 -2.446303
vt 0.5053665 -4.477712
vt 0.5053665 -1.160555
vt 0.9720604 -3.19215
vt 0.9720604 -2.446116
vt 2.494633 -1.160555
vt 2.494633 -4.477712
vt 2.02794 -2.446116
vt 2.02794 -3.19215
vt 2.495147 -4.477465
vt 0.5048527 -4.477465
vt 2.028453 -3.191903
vt 0.9715466 -3.191903
vt -0.9715466 2.400288
vt -2.028453 2.400288
vt -0.9715466 2.90629
vt -2.028453 2.90629
vt 3.19215 2.400288
vt 2.446116 2.400288
vt 3.19215 2.90629
vt 2.446116 2.90629
vt -2.446116 2.400288
vt -3.19215 2.400288
vt -2.446116 2.90629
vt -3.19215 2.90629
vt 2.028453 2.400288
vt 0.9715466 2.400288
vt 2.028453 2.90629
vt 0.9715466 2.90629
vt 2.495147 2.400188
vt 0.5048527 2.400188
vt 2.495147 3.171824
vt 0.5048527 3.171824
vt -3.692732 2.400288
vt -5.060384 2.400188
vt -3.692732 3.171925
vt -5.060384 3.171824
vt 4.036673 2.400188
vt 2.66902 2.400288
vt 4.036673 3.171824
vt 2.66902 3.171925
vt -0.9715466 2.400288
vt -2.028453 2.400288
vt -0.9715466 3.171925
vt -2.028453 3.171925
vt 0 0
vt -3 0
vt -0.24 0.7642218
vt -2.76 0.7642218
vt 0 2.400088
vt 0 0
vt -0.24 1.635866
vt -0.24 0.7642218
vt -3 0
vt -3 2.400088
vt -2.76 0.7642218
vt -2.76 1.635866
vt -3 2.400088
vt 0 2.400088
vt -2.76 1.635866
vt -0.24 1.635866
vt 0.24 0.0001
vt 2.76 0.0001
vt 0.24 -0.1846687
vt 2.76 -0.1846687
vt 0.0001 1.635866
vt 0.0001 0.7642218
vt -0.1846687 1.635866
vt -0.1846687 0.7642218
vt -0.0001 0.7642218
vt -0.0001 1.635866
vt 0.1846687 0.7642218
vt 0.1846687 1.635866
vt -2.76 0.0001
vt -0.24 0.0001
vt -2.76 -0.1846687
vt -0.24 -0.1846687

g MYRecycleFurnace
usemtl Default_Prototype
f 3/3/3 4/4/4 2/2/2 1/1/1
f 7/7/7 8/8/8 6/6/6 5/5/5
f 11/11/11 12/12/12 10/10/10 9/9/9
f 15/15/15 16/16/16 14/14/14 13/13/13
f 19/19/19 20/20/20 18/18/18 17/17/17
f 23/23/23 24/24/24 22/22/22 21/21/21
f 27/27/27 28/28/28 26/26/26 25/25/25
f 31/31/31 32/32/32 30/30/30 29/29/29
f 35/35/35 36/36/36 34/34/34 33/33/33
f 39/39/39 40/40/40 38/38/38 37/37/37
f 43/43/43 44/44/44 42/42/42 41/41/41
f 47/47/47 48/48/48 46/46/46 45/45/45
f 51/51/51 52/52/52 50/50/50 49/49/49
f 55/55/55 56/56/56 54/54/54 53/53/53
f 59/59/59 60/60/60 58/58/58 57/57/57
f 63/63/63 64/64/64 62/62/62 61/61/61
f 67/67/67 68/68/68 66/66/66 65/65/65
f 71/71/71 72/72/72 70/70/70 69/69/69
f 75/75/75 76/76/76 74/74/74 73/73/73
f 79/79/79 80/80/80 78/78/78 77/77/77
f 83/83/83 84/84/84 82/82/82 81/81/81
f 87/87/87 88/88/88 86/86/86 85/85/85
f 91/91/91 92/92/92 90/90/90 89/89/89
f 95/95/95 96/96/96 94/94/94 93/93/93
f 99/99/99 100/100/100 98/98/98 97/97/97
f 103/103/103 104/104/104 102/102/102 101/101/101
f 107/107/107 108/108/108 106/106/106 105/105/105
f 111/111/111 112/112/112 110/110/110 109/109/109
f 115/115/115 116/116/116 114/114/114 113/113/113
f 119/119/119 120/120/120 118/118/118 117/117/117

