# Exported from ProBuilder
# http://www.procore3d.com/probuilder
# 10/29/2018 3:48:06 PM

mtllib ./MYBarrelBase.mtl
o MYBarrelBase

g MYBarrelBase
v -1.225 0 0
v -1.675 0 0
v -1.225 0.9 0
v -1.675 0.9 0
v -1.9 0 -0.225
v -1.9 0 -0.675
v -1.9 0.9 -0.225
v -1.9 0.9 -0.675
v -1.675 0 -0.9
v -1.225 0 -0.9
v -1.675 0.9 -0.9
v -1.225 0.9 -0.9
v -1 0 -0.675
v -1 0 -0.225
v -1 0.9 -0.675
v -1 0.9 -0.225
v -1.675 0 0
v -1.675 0.9 0
v -1.9 0 -0.225
v -1.9 0.9 -0.225
v -1.225 0.9 0
v -1.225 0 0
v -1 0.9 -0.225
v -1 0 -0.225
v -1.225 0 -0.9
v -1.225 0.9 -0.9
v -1 0 -0.675
v -1 0.9 -0.675
v -1.9 0 -0.675
v -1.9 0.9 -0.675
v -1.675 0 -0.9
v -1.675 0.9 -0.9
v -1.675 0 -0.9
v -1.9 0 -0.675
v -1.9 0 -0.225
v -1.675 0 0
v -1.225 0 0
v -1 0 -0.225
v -1 0 -0.675
v -1.225 0 -0.9
v -1.675 0.9 0
v -1.9 0.9 -0.225
v -1.9 0.9 -0.675
v -1.675 0.9 -0.9
v -1.225 0.9 -0.9
v -1 0.9 -0.675
v -1 0.9 -0.225
v -1.225 0.9 0

vn 0 0 0.9
vn 0 0 0.9
vn 0 0 0.9
vn 0 0 0.9
vn -0.9 0 0
vn -0.9 0 0
vn -0.9 0 0
vn -0.9 0 0
vn 0 0 -0.9
vn 0 0 -0.9
vn 0 0 -0.9
vn 0 0 -0.9
vn 0.9 0 0
vn 0.9 0 0
vn 0.9 0 0
vn 0.9 0 0
vn -0.6363961 0 0.6363961
vn -0.6363961 0 0.6363961
vn -0.6363961 0 0.6363961
vn -0.6363961 0 0.6363961
vn 0.6363961 0 0.6363961
vn 0.6363961 0 0.6363961
vn 0.6363961 0 0.6363961
vn 0.6363961 0 0.6363961
vn 0.6363961 0 -0.6363961
vn 0.6363961 0 -0.6363961
vn 0.6363961 0 -0.6363961
vn 0.6363961 0 -0.6363961
vn -0.6363961 0 -0.6363961
vn -0.6363961 0 -0.6363961
vn -0.6363961 0 -0.6363961
vn -0.6363961 0 -0.6363961
vn 0 -0.9 0
vn 0 -0.9 0
vn 0 -0.9 0
vn 0 -0.9 0
vn 0 -0.9 0
vn 0 -0.9 0
vn 0 -0.9 0
vn 0 -0.9 0
vn 0 0.9 0
vn 0 0.9 0
vn 0 0.9 0
vn 0 0.9 0
vn 0 0.9 0
vn 0 0.9 0
vn 0 0.9 0
vn 0 0.9 0

vt 0.7500001 0
vt 0.6035535 0
vt 0.7500001 0.4851448
vt 0.6035535 0.4851448
vt 0.5 0
vt 0.3535533 0
vt 0.5 0.4851448
vt 0.3535533 0.4851448
vt 0.25 0
vt 0.1035534 0
vt 0.25 0.4851448
vt 0.1035534 0.4851448
vt 1 0
vt 0.8535534 0
vt 1 0.4851448
vt 0.8535534 0.4851448
vt 0.6035535 0
vt 0.6035535 0.4851448
vt 0.5 0
vt 0.5 0.4851448
vt 0.7500001 0.4851448
vt 0.7500001 0
vt 0.8535534 0.4851448
vt 0.8535534 0
vt 0.1035534 0
vt 0.1035534 0.4851448
vt 0 0
vt 0 0.4851448
vt 0.3535533 0
vt 0.3535533 0.4851448
vt 0.25 0
vt 0.25 0.4851448
vt 0.6466273 0.531886
vt 0.5314795 0.6465637
vt 0.5314795 0.8759192
vt 0.6466273 0.9905969
vt 0.8769227 0.9905969
vt 0.9920705 0.8759192
vt 0.9920705 0.6465637
vt 0.8769227 0.531886
vt 0.3613553 0.9866338
vt 0.4785428 0.8674932
vt 0.4785428 0.6292119
vt 0.3613553 0.5100713
vt 0.1269803 0.5100713
vt 0.009792805 0.6292119
vt -0.004416537 0.8793343
vt 0.112771 0.998475

g MYBarrelBase_0
usemtl Default_Prototype
f 3/3/3 4/4/4 2/2/2 1/1/1
f 7/7/7 8/8/8 6/6/6 5/5/5
f 11/11/11 12/12/12 10/10/10 9/9/9
f 15/15/15 16/16/16 14/14/14 13/13/13
f 20/20/20 19/19/19 17/17/17 18/18/18
f 24/24/24 23/23/23 21/21/21 22/22/22
f 28/28/28 27/27/27 25/25/25 26/26/26
f 32/32/32 31/31/31 29/29/29 30/30/30

g MYBarrelBase_1
usemtl Default_Prototype
f 37/37/37 40/40/40 38/38/38
f 33/33/33 40/40/40 37/37/37
f 35/35/35 33/33/33 37/37/37
f 35/35/35 34/34/34 33/33/33
f 35/35/35 37/37/37 36/36/36
f 40/40/40 39/39/39 38/38/38
f 47/47/47 46/46/46 45/45/45
f 41/41/41 48/48/48 42/42/42
f 44/44/44 43/43/43 42/42/42
f 48/48/48 44/44/44 42/42/42
f 48/48/48 45/45/45 44/44/44
f 47/47/47 45/45/45 48/48/48

