# Exported from ProBuilder
# http://www.procore3d.com/probuilder
# 10/26/2018 10:45:43 PM

mtllib ./MYBarrelRing1.mtl
o MYBarrelRing1

g MYBarrelRing1
v -1.23 0.006777734 0.02199996
v -1.714 0.006777734 0.02199996
v -1.23 0.02914584 0.02199996
v -1.714 0.02914584 0.02199996
v -1.972 0.006777734 -0.236
v -1.972 0.006777734 -0.72
v -1.972 0.02914584 -0.236
v -1.972 0.02914584 -0.72
v -1.714 0.006777734 -0.978
v -1.23 0.006777734 -0.978
v -1.714 0.02914584 -0.978
v -1.23 0.02914584 -0.978
v -0.972 0.006777734 -0.72
v -0.972 0.006777734 -0.236
v -0.972 0.02914584 -0.72
v -0.972 0.02914584 -0.236
v -1.727657 0.006777734 0.0163431
v -1.727657 0.02914584 0.0163431
v -1.966343 0.006777734 -0.2223432
v -1.966343 0.02914584 -0.2223432
v -1.216343 0.02914584 0.0163431
v -1.216343 0.006777734 0.0163431
v -0.9776568 0.02914584 -0.2223432
v -0.9776568 0.006777734 -0.2223432
v -1.216343 0.006777734 -0.9723432
v -1.216343 0.02914584 -0.9723432
v -0.9776568 0.006777734 -0.7336569
v -0.9776568 0.02914584 -0.7336569
v -1.966343 0.006777734 -0.7336569
v -1.966343 0.02914584 -0.7336569
v -1.727657 0.006777734 -0.9723432
v -1.727657 0.02914584 -0.9723432
v -1.719657 -0.001222253 -0.9723432
v -1.966343 -0.001222253 -0.7256569
v -1.966343 -0.001222253 -0.2303432
v -1.719657 -0.001222253 0.0163431
v -1.224343 -0.001222253 0.0163431
v -0.9776568 -0.001222253 -0.2303432
v -0.9776568 -0.001222253 -0.7256569
v -1.224343 -0.001222253 -0.9723432
v -1.719657 0.03714585 0.0163431
v -1.966343 0.03714585 -0.2303432
v -1.966343 0.03714585 -0.7256569
v -1.719657 0.03714585 -0.9723432
v -1.224343 0.03714585 -0.9723432
v -0.9776568 0.03714585 -0.7256569
v -0.9776568 0.03714585 -0.2303432
v -1.224343 0.03714585 0.0163431
v -1.23 0.006777734 0.02199996
v -1.714 0.006777734 0.02199996
v -1.224343 -0.001222253 0.0163431
v -1.719657 -0.001222253 0.0163431
v -1.23 0.02914584 0.02199996
v -1.23 0.006777734 0.02199996
v -1.216343 0.02914584 0.0163431
v -1.216343 0.006777734 0.0163431
v -1.714 0.006777734 0.02199996
v -1.714 0.02914584 0.02199996
v -1.727657 0.006777734 0.0163431
v -1.727657 0.02914584 0.0163431
v -1.714 0.02914584 0.02199996
v -1.23 0.02914584 0.02199996
v -1.719657 0.03714585 0.0163431
v -1.224343 0.03714585 0.0163431
v -1.972 0.006777734 -0.236
v -1.972 0.006777734 -0.72
v -1.966343 -0.001222253 -0.2303432
v -1.966343 -0.001222253 -0.7256569
v -1.972 0.02914584 -0.236
v -1.972 0.006777734 -0.236
v -1.966343 0.02914584 -0.2223432
v -1.966343 0.006777734 -0.2223432
v -1.972 0.006777734 -0.72
v -1.972 0.02914584 -0.72
v -1.966343 0.006777734 -0.7336569
v -1.966343 0.02914584 -0.7336569
v -1.972 0.02914584 -0.72
v -1.972 0.02914584 -0.236
v -1.966343 0.03714585 -0.7256569
v -1.966343 0.03714585 -0.2303432
v -1.714 0.006777734 -0.978
v -1.23 0.006777734 -0.978
v -1.719657 -0.001222253 -0.9723432
v -1.224343 -0.001222253 -0.9723432
v -1.714 0.02914584 -0.978
v -1.714 0.006777734 -0.978
v -1.727657 0.02914584 -0.9723432
v -1.727657 0.006777734 -0.9723432
v -1.23 0.006777734 -0.978
v -1.23 0.02914584 -0.978
v -1.216343 0.006777734 -0.9723432
v -1.216343 0.02914584 -0.9723432
v -1.23 0.02914584 -0.978
v -1.714 0.02914584 -0.978
v -1.224343 0.03714585 -0.9723432
v -1.719657 0.03714585 -0.9723432
v -0.972 0.006777734 -0.72
v -0.972 0.006777734 -0.236
v -0.9776568 -0.001222253 -0.7256569
v -0.9776568 -0.001222253 -0.2303432
v -0.972 0.02914584 -0.72
v -0.972 0.006777734 -0.72
v -0.9776568 0.02914584 -0.7336569
v -0.9776568 0.006777734 -0.7336569
v -0.972 0.006777734 -0.236
v -0.972 0.02914584 -0.236
v -0.9776568 0.006777734 -0.2223432
v -0.9776568 0.02914584 -0.2223432
v -0.972 0.02914584 -0.236
v -0.972 0.02914584 -0.72
v -0.9776568 0.03714585 -0.2303432
v -0.9776568 0.03714585 -0.7256569
v -1.727657 0.006777734 0.0163431
v -1.966343 0.006777734 -0.2223432
v -1.719657 -0.001222253 0.0163431
v -1.966343 -0.001222253 -0.2303432
v -1.966343 0.02914584 -0.2223432
v -1.727657 0.02914584 0.0163431
v -1.966343 0.03714585 -0.2303432
v -1.719657 0.03714585 0.0163431
v -1.216343 0.02914584 0.0163431
v -0.9776568 0.02914584 -0.2223432
v -1.224343 0.03714585 0.0163431
v -0.9776568 0.03714585 -0.2303432
v -0.9776568 0.006777734 -0.2223432
v -1.216343 0.006777734 0.0163431
v -0.9776568 -0.001222253 -0.2303432
v -1.224343 -0.001222253 0.0163431
v -1.216343 0.006777734 -0.9723432
v -0.9776568 0.006777734 -0.7336569
v -1.224343 -0.001222253 -0.9723432
v -0.9776568 -0.001222253 -0.7256569
v -0.9776568 0.02914584 -0.7336569
v -1.216343 0.02914584 -0.9723432
v -0.9776568 0.03714585 -0.7256569
v -1.224343 0.03714585 -0.9723432
v -1.966343 0.006777734 -0.7336569
v -1.727657 0.006777734 -0.9723432
v -1.966343 -0.001222253 -0.7256569
v -1.719657 -0.001222253 -0.9723432
v -1.727657 0.02914584 -0.9723432
v -1.966343 0.02914584 -0.7336569
v -1.719657 0.03714585 -0.9723432
v -1.966343 0.03714585 -0.7256569
v -1.23 0.006777734 0.02199996
v -1.224343 -0.001222253 0.0163431
v -1.216343 0.006777734 0.0163431
v -1.714 0.006777734 0.02199996
v -1.719657 -0.001222253 0.0163431
v -1.727657 0.006777734 0.0163431
v -1.23 0.02914584 0.02199996
v -1.216343 0.02914584 0.0163431
v -1.224343 0.03714585 0.0163431
v -1.714 0.02914584 0.02199996
v -1.727657 0.02914584 0.0163431
v -1.719657 0.03714585 0.0163431
v -1.972 0.006777734 -0.236
v -1.966343 -0.001222253 -0.2303432
v -1.966343 0.006777734 -0.2223432
v -1.972 0.006777734 -0.72
v -1.966343 -0.001222253 -0.7256569
v -1.966343 0.006777734 -0.7336569
v -1.972 0.02914584 -0.236
v -1.966343 0.02914584 -0.2223432
v -1.966343 0.03714585 -0.2303432
v -1.972 0.02914584 -0.72
v -1.966343 0.02914584 -0.7336569
v -1.966343 0.03714585 -0.7256569
v -1.714 0.006777734 -0.978
v -1.719657 -0.001222253 -0.9723432
v -1.727657 0.006777734 -0.9723432
v -1.23 0.006777734 -0.978
v -1.224343 -0.001222253 -0.9723432
v -1.216343 0.006777734 -0.9723432
v -1.714 0.02914584 -0.978
v -1.727657 0.02914584 -0.9723432
v -1.719657 0.03714585 -0.9723432
v -1.23 0.02914584 -0.978
v -1.216343 0.02914584 -0.9723432
v -1.224343 0.03714585 -0.9723432
v -0.972 0.006777734 -0.72
v -0.9776568 -0.001222253 -0.7256569
v -0.9776568 0.006777734 -0.7336569
v -0.972 0.006777734 -0.236
v -0.9776568 -0.001222253 -0.2303432
v -0.9776568 0.006777734 -0.2223432
v -0.972 0.02914584 -0.72
v -0.9776568 0.02914584 -0.7336569
v -0.9776568 0.03714585 -0.7256569
v -0.972 0.02914584 -0.236
v -0.9776568 0.02914584 -0.2223432
v -0.9776568 0.03714585 -0.2303432

vn 0 0 1
vn 0 0 1
vn 0 0 1
vn 0 0 1
vn -1 0 0
vn -1 0 0
vn -1 0 0
vn -1 0 0
vn 0 0 -1
vn 0 0 -1
vn 0 0 -1
vn 0 0 -1
vn 1 0 0
vn 1 0 0
vn 1 0 0
vn 1 0 0
vn -0.7071068 0 0.7071068
vn -0.7071068 0 0.7071068
vn -0.7071068 0 0.7071068
vn -0.7071068 0 0.7071068
vn 0.7071068 0 0.7071068
vn 0.7071068 0 0.7071068
vn 0.7071068 0 0.7071068
vn 0.7071068 0 0.7071068
vn 0.7071068 0 -0.7071068
vn 0.7071068 0 -0.7071068
vn 0.7071068 0 -0.7071068
vn 0.7071068 0 -0.7071068
vn -0.7071068 0 -0.7071068
vn -0.7071068 0 -0.7071068
vn -0.7071068 0 -0.7071068
vn -0.7071068 0 -0.7071068
vn 0 -1 0
vn 0 -1 0
vn 0 -1 0
vn 0 -1 0
vn 0 -1 0
vn 0 -1 0
vn 0 -1 0
vn 0 -1 0
vn 0 1 0
vn 0 1 0
vn 0 1 0
vn 0 1 0
vn 0 1 0
vn 0 1 0
vn 0 1 0
vn 0 1 0
vn 0 -0.577351 0.8164961
vn 0 -0.577351 0.8164962
vn 0 -0.577351 0.8164962
vn 0 -0.5773509 0.8164961
vn 0.3826838 0 0.9238794
vn 0.3826838 0 0.9238794
vn 0.3826838 0 0.9238794
vn 0.3826838 0 0.9238794
vn -0.3826834 0 0.9238796
vn -0.3826834 0 0.9238796
vn -0.3826834 0 0.9238796
vn -0.3826834 0 0.9238796
vn 0 0.5773495 0.8164971
vn 0 0.5773495 0.8164971
vn 0 0.5773495 0.8164971
vn 0 0.5773495 0.8164971
vn -0.8164968 -0.5773498 0
vn -0.8164969 -0.5773498 0
vn -0.8164969 -0.5773498 0
vn -0.8164969 -0.5773498 0
vn -0.9238798 0 0.3826829
vn -0.9238798 0 0.3826829
vn -0.9238798 0 0.3826829
vn -0.9238798 0 0.3826829
vn -0.92388 0 -0.3826825
vn -0.92388 0 -0.3826825
vn -0.92388 0 -0.3826825
vn -0.92388 0 -0.3826825
vn -0.8164979 0.5773484 0
vn -0.8164979 0.5773484 0
vn -0.8164979 0.5773484 0
vn -0.8164979 0.5773484 0
vn 0 -0.5773498 -0.8164968
vn 0 -0.5773498 -0.8164969
vn 0 -0.5773498 -0.8164969
vn 0 -0.5773498 -0.8164969
vn -0.3826825 0 -0.92388
vn -0.3826825 0 -0.92388
vn -0.3826825 0 -0.92388
vn -0.3826825 0 -0.92388
vn 0.3826829 0 -0.9238798
vn 0.3826829 0 -0.9238798
vn 0.3826829 0 -0.9238798
vn 0.3826829 0 -0.9238798
vn 0 0.5773484 -0.8164979
vn 0 0.5773484 -0.8164979
vn 0 0.5773484 -0.8164979
vn 0 0.5773484 -0.8164979
vn 0.8164961 -0.577351 0
vn 0.8164962 -0.577351 0
vn 0.8164962 -0.577351 0
vn 0.8164961 -0.5773509 0
vn 0.9238796 0 -0.3826834
vn 0.9238796 0 -0.3826834
vn 0.9238796 0 -0.3826834
vn 0.9238796 0 -0.3826834
vn 0.9238794 0 0.3826838
vn 0.9238794 0 0.3826838
vn 0.9238794 0 0.3826838
vn 0.9238794 0 0.3826838
vn 0.8164971 0.5773495 0
vn 0.8164971 0.5773495 0
vn 0.8164971 0.5773495 0
vn 0.8164971 0.5773495 0
vn -0.5773495 -0.5773517 0.5773496
vn -0.5773497 -0.5773514 0.5773498
vn -0.5773497 -0.5773514 0.5773498
vn -0.5773498 -0.577351 0.57735
vn -0.5773506 0.5773495 0.5773507
vn -0.5773504 0.5773499 0.5773505
vn -0.5773504 0.5773499 0.5773505
vn -0.5773502 0.5773502 0.5773503
vn 0.5773506 0.5773495 0.5773506
vn 0.5773506 0.5773495 0.5773506
vn 0.5773506 0.5773495 0.5773506
vn 0.5773507 0.5773495 0.5773507
vn 0.5773499 -0.577351 0.5773499
vn 0.5773499 -0.577351 0.5773499
vn 0.5773499 -0.577351 0.5773499
vn 0.5773499 -0.577351 0.5773499
vn 0.5773499 -0.577351 -0.5773498
vn 0.5773498 -0.5773513 -0.5773497
vn 0.5773498 -0.5773513 -0.5773497
vn 0.5773496 -0.5773517 -0.5773495
vn 0.5773503 0.5773503 -0.5773503
vn 0.5773504 0.5773499 -0.5773504
vn 0.5773504 0.5773499 -0.5773504
vn 0.5773507 0.5773495 -0.5773506
vn -0.5773496 -0.5773517 -0.5773496
vn -0.5773495 -0.5773516 -0.5773495
vn -0.5773495 -0.5773516 -0.5773495
vn -0.5773495 -0.5773517 -0.5773495
vn -0.5773503 0.5773503 -0.5773503
vn -0.5773503 0.5773503 -0.5773503
vn -0.5773503 0.5773503 -0.5773503
vn -0.5773503 0.5773503 -0.5773503
vn 0.3574069 -0.3574076 0.8628558
vn 0.3574069 -0.3574076 0.8628558
vn 0.3574069 -0.3574076 0.8628558
vn -0.3574066 -0.3574079 0.8628559
vn -0.3574066 -0.3574079 0.8628559
vn -0.3574066 -0.3574079 0.8628559
vn 0.3574071 0.3574064 0.8628561
vn 0.3574071 0.3574064 0.8628561
vn 0.3574071 0.3574064 0.8628561
vn -0.3574068 0.3574068 0.8628563
vn -0.3574068 0.3574068 0.8628563
vn -0.3574068 0.3574068 0.8628563
vn -0.8628564 -0.3574068 0.3574062
vn -0.8628564 -0.3574068 0.3574062
vn -0.8628564 -0.3574068 0.3574062
vn -0.8628564 -0.3574072 -0.3574058
vn -0.8628564 -0.3574072 -0.3574058
vn -0.8628564 -0.3574072 -0.3574058
vn -0.8628567 0.3574057 0.3574063
vn -0.8628567 0.3574057 0.3574063
vn -0.8628567 0.3574057 0.3574063
vn -0.8628569 0.357406 -0.357406
vn -0.8628569 0.357406 -0.357406
vn -0.8628569 0.357406 -0.357406
vn -0.3574058 -0.3574072 -0.8628564
vn -0.3574058 -0.3574072 -0.8628564
vn -0.3574058 -0.3574072 -0.8628564
vn 0.3574062 -0.3574069 -0.8628564
vn 0.3574062 -0.3574069 -0.8628564
vn 0.3574062 -0.3574069 -0.8628564
vn -0.357406 0.357406 -0.8628569
vn -0.357406 0.357406 -0.8628569
vn -0.357406 0.357406 -0.8628569
vn 0.3574063 0.3574057 -0.8628567
vn 0.3574063 0.3574057 -0.8628567
vn 0.3574063 0.3574057 -0.8628567
vn 0.8628559 -0.3574079 -0.3574066
vn 0.8628559 -0.3574079 -0.3574066
vn 0.8628559 -0.3574079 -0.3574066
vn 0.8628558 -0.3574076 0.3574069
vn 0.8628558 -0.3574076 0.3574069
vn 0.8628558 -0.3574076 0.3574069
vn 0.8628563 0.3574068 -0.3574068
vn 0.8628563 0.3574068 -0.3574068
vn 0.8628563 0.3574068 -0.3574068
vn 0.8628561 0.3574064 0.3574071
vn 0.8628561 0.3574064 0.3574071
vn 0.8628561 0.3574064 0.3574071

vt -0.258 0.008
vt -0.742 0.008
vt -0.258 0.992
vt -0.742 0.992
vt -0.258 0.008
vt -0.742 0.008
vt -0.258 0.992
vt -0.742 0.992
vt 0.742 0.008
vt 0.258 0.008
vt 0.742 0.992
vt 0.258 0.992
vt 0.742 0.008
vt 0.258 0.008
vt 0.742 0.992
vt 0.258 0.992
vt -0.5383301 0.4827777
vt -0.5383301 0.5051458
vt -0.8758835 0.4827777
vt -0.8758835 0.5051458
vt -0.1687767 0.5051458
vt -0.1687767 0.4827777
vt 0.1687767 0.5051458
vt 0.1687767 0.4827777
vt 0.8758835 0.4827777
vt 0.8758835 0.5051458
vt 0.5383301 0.4827777
vt 0.5383301 0.5051458
vt 0.1687767 0.4827777
vt 0.1687767 0.5051458
vt -0.1687767 0.4827777
vt -0.1687767 0.5051458
vt -0.7476568 -0.9943432
vt -0.9943432 -0.7476568
vt -0.9943432 -0.2523431
vt -0.7476568 -0.005656854
vt -0.2523431 -0.005656854
vt -0.005656854 -0.2523431
vt -0.005656854 -0.7476568
vt -0.2523431 -0.9943432
vt 0.7476568 -0.005656854
vt 0.9943432 -0.2523431
vt 0.9943432 -0.7476568
vt 0.7476568 -0.9943432
vt 0.2523431 -0.9943432
vt 0.005656854 -0.7476568
vt 0.005656854 -0.2523431
vt 0.2523431 -0.005656854
vt -0.258 0.3941862
vt -0.742 0.3941862
vt -0.2523431 0.3843882
vt -0.7476568 0.3843882
vt -0.2383609 0.5051458
vt -0.2383609 0.4827777
vt -0.2235788 0.5051458
vt -0.2235788 0.4827777
vt -0.6855186 0.4827777
vt -0.6855186 0.5051458
vt -0.7003007 0.4827777
vt -0.7003007 0.5051458
vt -0.742 0.4124501
vt -0.258 0.4124501
vt -0.7476568 0.4222481
vt -0.2523431 0.4222481
vt -0.258 0.9715365
vt -0.742 0.9715365
vt -0.2523431 0.9617385
vt -0.7476568 0.9617385
vt -0.6210439 0.5051458
vt -0.6210439 0.4827777
vt -0.6062618 0.5051458
vt -0.6062618 0.4827777
vt -0.3028364 0.4827777
vt -0.3028364 0.5051458
vt -0.3176185 0.4827777
vt -0.3176185 0.5051458
vt -0.742 -0.1648979
vt -0.258 -0.1648979
vt -0.7476568 -0.1550999
vt -0.2523431 -0.1550999
vt 0.742 0.9715365
vt 0.258 0.9715365
vt 0.7476568 0.9617385
vt 0.2523431 0.9617385
vt 0.3028364 0.5051458
vt 0.3028364 0.4827777
vt 0.3176185 0.5051458
vt 0.3176185 0.4827777
vt 0.6210439 0.4827777
vt 0.6210439 0.5051458
vt 0.6062618 0.4827777
vt 0.6062618 0.5051458
vt 0.258 -0.1648979
vt 0.742 -0.1648979
vt 0.2523431 -0.1550999
vt 0.7476568 -0.1550999
vt 0.742 0.3941862
vt 0.258 0.3941862
vt 0.7476568 0.3843882
vt 0.2523431 0.3843882
vt 0.6855186 0.5051458
vt 0.6855186 0.4827777
vt 0.7003007 0.5051458
vt 0.7003007 0.4827777
vt 0.2383609 0.4827777
vt 0.2383609 0.5051458
vt 0.2235788 0.4827777
vt 0.2235788 0.5051458
vt 0.258 0.4124501
vt 0.742 0.4124501
vt 0.2523431 0.4222481
vt 0.7476568 0.4222481
vt -0.8757059 -0.1160201
vt -1.044483 -0.4083498
vt -0.8643922 -0.1160201
vt -1.038826 -0.4181477
vt -0.8758835 0.1062643
vt -0.5383301 0.1062643
vt -0.8815404 0.1160622
vt -0.5326732 0.1160623
vt -0.1687767 0.5145121
vt 0.1687767 0.5145121
vt -0.1744335 0.5243101
vt 0.1744335 0.5243101
vt 0.3373751 -0.0001027729
vt 0.1685982 0.292227
vt 0.3317183 -0.009900731
vt 0.1572845 0.292227
vt 0.1685982 -1.108724
vt 0.3373751 -0.8163941
vt 0.1572845 -1.108724
vt 0.3317183 -0.8065962
vt 0.5383301 0.1062637
vt 0.8758835 0.1062637
vt 0.5326732 0.1160617
vt 0.8815404 0.1160616
vt -1.044483 -0.4081473
vt -0.8757058 -0.7004769
vt -1.038826 -0.3983493
vt -0.8643921 -0.7004769
vt -0.1687767 -0.3019847
vt 0.1687767 -0.3019847
vt -0.1744336 -0.2921867
vt 0.1744336 -0.2921867
vt -0.2383609 0.4156018
vt -0.2309698 0.4070361
vt -0.2235788 0.4156018
vt -0.6855186 0.5523759
vt -0.6929096 0.5438101
vt -0.7003006 0.5523759
vt -0.2383609 0.507068
vt -0.2235788 0.507068
vt -0.2309698 0.5156339
vt -0.6855186 0.3702944
vt -0.7003007 0.3702944
vt -0.6929097 0.3788602
vt -0.6210439 0.7458031
vt -0.6136528 0.7372373
vt -0.6062618 0.7458031
vt -0.3028364 0.8825769
vt -0.3102274 0.8740111
vt -0.3176185 0.8825769
vt -0.6210438 0.1768681
vt -0.6062617 0.1768681
vt -0.6136528 0.1854339
vt -0.3028364 0.04009475
vt -0.3176185 0.04009475
vt -0.3102275 0.04866055
vt 0.3028364 0.8825769
vt 0.3102274 0.8740111
vt 0.3176185 0.8825769
vt 0.6210439 0.7458031
vt 0.6136528 0.7372373
vt 0.6062618 0.7458031
vt 0.3028364 0.04009475
vt 0.3176185 0.04009475
vt 0.3102275 0.04866055
vt 0.6210438 0.1768681
vt 0.6062617 0.1768681
vt 0.6136528 0.1854339
vt 0.6855186 0.5523759
vt 0.6929096 0.5438101
vt 0.7003006 0.5523759
vt 0.2383609 0.4156018
vt 0.2309698 0.4070361
vt 0.2235788 0.4156018
vt 0.6855186 0.3702944
vt 0.7003007 0.3702944
vt 0.6929097 0.3788602
vt 0.2383609 0.507068
vt 0.2235788 0.507068
vt 0.2309698 0.5156339

g MYBarrelRing1_0
usemtl Ico
f 3/3/3 4/4/4 2/2/2 1/1/1
f 7/7/7 8/8/8 6/6/6 5/5/5
f 11/11/11 12/12/12 10/10/10 9/9/9
f 15/15/15 16/16/16 14/14/14 13/13/13
f 20/20/20 19/19/19 17/17/17 18/18/18
f 24/24/24 23/23/23 21/21/21 22/22/22
f 28/28/28 27/27/27 25/25/25 26/26/26
f 32/32/32 31/31/31 29/29/29 30/30/30
f 52/52/52 51/51/51 49/49/49 50/50/50
f 56/56/56 55/55/55 53/53/53 54/54/54
f 60/60/60 59/59/59 57/57/57 58/58/58
f 64/64/64 63/63/63 61/61/61 62/62/62
f 68/68/68 67/67/67 65/65/65 66/66/66
f 72/72/72 71/71/71 69/69/69 70/70/70
f 76/76/76 75/75/75 73/73/73 74/74/74
f 80/80/80 79/79/79 77/77/77 78/78/78
f 84/84/84 83/83/83 81/81/81 82/82/82
f 88/88/88 87/87/87 85/85/85 86/86/86
f 92/92/92 91/91/91 89/89/89 90/90/90
f 96/96/96 95/95/95 93/93/93 94/94/94
f 100/100/100 99/99/99 97/97/97 98/98/98
f 104/104/104 103/103/103 101/101/101 102/102/102
f 108/108/108 107/107/107 105/105/105 106/106/106
f 112/112/112 111/111/111 109/109/109 110/110/110
f 116/116/116 115/115/115 113/113/113 114/114/114
f 120/120/120 119/119/119 117/117/117 118/118/118
f 124/124/124 123/123/123 121/121/121 122/122/122
f 128/128/128 127/127/127 125/125/125 126/126/126
f 132/132/132 131/131/131 129/129/129 130/130/130
f 136/136/136 135/135/135 133/133/133 134/134/134
f 140/140/140 139/139/139 137/137/137 138/138/138
f 144/144/144 143/143/143 141/141/141 142/142/142

g MYBarrelRing1_1
usemtl Ico
f 37/37/37 40/40/40 38/38/38
f 33/33/33 40/40/40 37/37/37
f 35/35/35 33/33/33 37/37/37
f 35/35/35 34/34/34 33/33/33
f 35/35/35 37/37/37 36/36/36
f 40/40/40 39/39/39 38/38/38
f 47/47/47 46/46/46 45/45/45
f 41/41/41 48/48/48 42/42/42
f 44/44/44 43/43/43 42/42/42
f 48/48/48 44/44/44 42/42/42
f 48/48/48 45/45/45 44/44/44
f 47/47/47 45/45/45 48/48/48
f 145/145/145 146/146/146 147/147/147
f 150/150/150 149/149/149 148/148/148
f 151/151/151 152/152/152 153/153/153
f 156/156/156 155/155/155 154/154/154
f 157/157/157 158/158/158 159/159/159
f 162/162/162 161/161/161 160/160/160
f 163/163/163 164/164/164 165/165/165
f 168/168/168 167/167/167 166/166/166
f 169/169/169 170/170/170 171/171/171
f 174/174/174 173/173/173 172/172/172
f 175/175/175 176/176/176 177/177/177
f 180/180/180 179/179/179 178/178/178
f 181/181/181 182/182/182 183/183/183
f 186/186/186 185/185/185 184/184/184
f 187/187/187 188/188/188 189/189/189
f 192/192/192 191/191/191 190/190/190

