# Exported from ProBuilder
# http://www.procore3d.com/probuilder
# 10/28/2018 6:40:48 PM

mtllib ./MYCokeFurnace.mtl
o MYCokeFurnace

g MYCokeFurnace
v -0.5 3.9 0
v -0.5 4.9 0
v -0.3535534 3.9 0.3535534
v -0.3535534 4.9 0.3535534
v -0.3535534 3.9 0.3535534
v -0.3535534 4.9 0.3535534
v 2.185569E-08 3.9 0.5
v 2.185569E-08 4.9 0.5
v 2.185569E-08 3.9 0.5
v 2.185569E-08 4.9 0.5
v 0.3535534 3.9 0.3535534
v 0.3535534 4.9 0.3535534
v 0.3535534 3.9 0.3535534
v 0.3535534 4.9 0.3535534
v 0.5 3.9 -4.371139E-08
v 0.5 4.9 -4.371139E-08
v 0.5 3.9 -4.371139E-08
v 0.5 4.9 -4.371139E-08
v 0.3535534 3.9 -0.3535534
v 0.3535534 4.9 -0.3535534
v 0.3535534 3.9 -0.3535534
v 0.3535534 4.9 -0.3535534
v -5.96244E-09 3.9 -0.5
v -5.96244E-09 4.9 -0.5
v -5.96244E-09 3.9 -0.5
v -5.96244E-09 4.9 -0.5
v -0.3535533 3.9 -0.3535534
v -0.3535533 4.9 -0.3535534
v -0.3535533 3.9 -0.3535534
v -0.3535533 4.9 -0.3535534
v -0.5 3.9 0
v -0.5 4.9 0
v -0.5 3.9 0
v 0 3.9 0
v -0.3535534 3.9 0.3535534
v -1.037911 7.435993 2.295053E-12
v -7.843061E-09 7.435993 2.295053E-12
v -0.7339141 7.435993 0.7339141
v -0.3535534 3.9 0.3535534
v 0 3.9 0
v 2.185569E-08 3.9 0.5
v -0.7339141 7.435993 0.7339141
v -7.843061E-09 7.435993 2.295053E-12
v 3.752548E-08 7.435993 1.037911
v 2.185569E-08 3.9 0.5
v 0 3.9 0
v 0.3535534 3.9 0.3535534
v 3.752548E-08 7.435993 1.037911
v -7.843061E-09 7.435993 2.295053E-12
v 0.7339141 7.435993 0.7339141
v 0.3535534 3.9 0.3535534
v 0 3.9 0
v 0.5 3.9 -4.371139E-08
v 0.7339141 7.435993 0.7339141
v -7.843061E-09 7.435993 2.295053E-12
v 1.037911 7.435993 -9.073479E-08
v 0.5 3.9 -4.371139E-08
v 0 3.9 0
v 0.3535534 3.9 -0.3535534
v 1.037911 7.435993 -9.073479E-08
v -7.843061E-09 7.435993 2.295053E-12
v 0.7339143 7.435993 -0.7339141
v 0.3535534 3.9 -0.3535534
v 0 3.9 0
v -5.96244E-09 3.9 -0.5
v 0.7339143 7.435993 -0.7339141
v -7.843061E-09 7.435993 2.295053E-12
v -2.022003E-08 7.435993 -1.037911
v -5.96244E-09 3.9 -0.5
v 0 3.9 0
v -0.3535533 3.9 -0.3535534
v -2.022003E-08 7.435993 -1.037911
v -7.843061E-09 7.435993 2.295053E-12
v -0.733914 7.435993 -0.7339143
v -0.3535533 3.9 -0.3535534
v 0 3.9 0
v -0.5 3.9 0
v -0.733914 7.435993 -0.7339143
v -7.843061E-09 7.435993 2.295053E-12
v -1.037911 7.435993 2.295053E-12
v -0.5 4.9 0
v -0.3535533 4.9 -0.3535534
v -1.148855 5.464612 1.235258E-09
v -0.8123627 5.464612 -0.812363
v -0.3535534 4.9 0.3535534
v -0.5 4.9 0
v -0.8123628 5.464612 0.8123628
v -1.148855 5.464612 1.235258E-09
v -0.3535533 4.9 -0.3535534
v -5.96244E-09 4.9 -0.5
v -0.8123627 5.464612 -0.812363
v -2.503603E-08 5.464612 -1.148855
v -5.96244E-09 4.9 -0.5
v 0.3535534 4.9 -0.3535534
v -2.503603E-08 5.464612 -1.148855
v 0.812363 5.464612 -0.8123628
v 0.3535534 4.9 -0.3535534
v 0.5 4.9 -4.371139E-08
v 0.812363 5.464612 -0.8123628
v 1.148855 5.464612 -9.92008E-08
v 0.5 4.9 -4.371139E-08
v 0.3535534 4.9 0.3535534
v 1.148855 5.464612 -9.92008E-08
v 0.8123628 5.464612 0.8123628
v 0.3535534 4.9 0.3535534
v 2.185569E-08 4.9 0.5
v 0.8123628 5.464612 0.8123628
v 3.888195E-08 5.464612 1.148855
v 2.185569E-08 4.9 0.5
v -0.3535534 4.9 0.3535534
v 3.888195E-08 5.464612 1.148855
v -0.8123628 5.464612 0.8123628
v -1.148855 5.464612 1.235258E-09
v -0.8123627 5.464612 -0.812363
v -1.148855 7.329957 1.235258E-09
v -0.8123627 7.329957 -0.812363
v -0.8123628 5.464612 0.8123628
v -1.148855 5.464612 1.235258E-09
v -0.8123628 7.329957 0.8123628
v -1.148855 7.329957 1.235258E-09
v -0.8123627 5.464612 -0.812363
v -2.503603E-08 5.464612 -1.148855
v -0.8123627 7.329957 -0.812363
v -2.503603E-08 7.329957 -1.148855
v -2.503603E-08 5.464612 -1.148855
v 0.812363 5.464612 -0.8123628
v -2.503603E-08 7.329957 -1.148855
v 0.812363 7.329957 -0.8123628
v 0.812363 5.464612 -0.8123628
v 1.148855 5.464612 -9.92008E-08
v 0.812363 7.329957 -0.8123628
v 1.148855 7.329957 -9.92008E-08
v 1.148855 5.464612 -9.92008E-08
v 0.8123628 5.464612 0.8123628
v 1.148855 7.329957 -9.92008E-08
v 0.8123628 7.329957 0.8123628
v 0.8123628 5.464612 0.8123628
v 3.888195E-08 5.464612 1.148855
v 0.8123628 7.329957 0.8123628
v 3.888195E-08 7.329957 1.148855
v 3.888195E-08 5.464612 1.148855
v -0.8123628 5.464612 0.8123628
v 3.888195E-08 7.329957 1.148855
v -0.8123628 7.329957 0.8123628
v -1.148855 7.329957 1.235258E-09
v -0.8123627 7.329957 -0.812363
v -1.037911 7.435993 2.295053E-12
v -0.733914 7.435993 -0.7339143
v -0.8123628 7.329957 0.8123628
v -1.148855 7.329957 1.235258E-09
v -0.7339141 7.435993 0.7339141
v -1.037911 7.435993 2.295053E-12
v -0.8123627 7.329957 -0.812363
v -2.503603E-08 7.329957 -1.148855
v -0.733914 7.435993 -0.7339143
v -2.022003E-08 7.435993 -1.037911
v -2.503603E-08 7.329957 -1.148855
v 0.812363 7.329957 -0.8123628
v -2.022003E-08 7.435993 -1.037911
v 0.7339143 7.435993 -0.7339141
v 0.812363 7.329957 -0.8123628
v 1.148855 7.329957 -9.92008E-08
v 0.7339143 7.435993 -0.7339141
v 1.037911 7.435993 -9.073479E-08
v 1.148855 7.329957 -9.92008E-08
v 0.8123628 7.329957 0.8123628
v 1.037911 7.435993 -9.073479E-08
v 0.7339141 7.435993 0.7339141
v 0.8123628 7.329957 0.8123628
v 3.888195E-08 7.329957 1.148855
v 0.7339141 7.435993 0.7339141
v 3.752548E-08 7.435993 1.037911
v 3.888195E-08 7.329957 1.148855
v -0.8123628 7.329957 0.8123628
v 3.752548E-08 7.435993 1.037911
v -0.7339141 7.435993 0.7339141

vn -0.9238795 0 -2.980232E-08
vn -0.9238795 0 -2.980232E-08
vn -0.6532815 0 0.6532815
vn -0.6532815 0 0.6532815
vn -0.6532815 0 0.6532815
vn -0.6532815 0 0.6532815
vn 2.980232E-08 0 0.9238796
vn 2.980232E-08 0 0.9238796
vn 2.980232E-08 0 0.9238796
vn 2.980232E-08 0 0.9238796
vn 0.6532815 0 0.6532815
vn 0.6532815 0 0.6532815
vn 0.6532815 0 0.6532815
vn 0.6532815 0 0.6532815
vn 0.9238795 0 0
vn 0.9238795 0 0
vn 0.9238795 0 0
vn 0.9238795 0 0
vn 0.6532815 0 -0.6532815
vn 0.6532815 0 -0.6532815
vn 0.6532815 0 -0.6532815
vn 0.6532815 0 -0.6532815
vn 8.940697E-08 0 -0.9238795
vn 8.940697E-08 0 -0.9238795
vn 8.940697E-08 0 -0.9238795
vn 8.940697E-08 0 -0.9238795
vn -0.6532814 0 -0.6532815
vn -0.6532814 0 -0.6532815
vn -0.6532814 0 -0.6532815
vn -0.6532814 0 -0.6532815
vn -0.9238795 0 -2.980232E-08
vn -0.9238795 0 -2.980232E-08
vn 0 -0.9999999 0
vn 0 -0.9999999 0
vn 0 -0.9999999 0
vn 0 1 0
vn 0 1 0
vn 0 1 0
vn 0 -0.9999999 0
vn 0 -0.9999999 0
vn 0 -0.9999999 0
vn 0 1 0
vn 0 1 0
vn 0 1 0
vn 0 -0.9999999 0
vn 0 -0.9999999 0
vn 0 -0.9999999 0
vn 0 1 0
vn 0 1 0
vn 0 1 0
vn 0 -0.9999999 0
vn 0 -0.9999999 0
vn 0 -0.9999999 0
vn 0 1 0
vn 0 1 0
vn 0 1 0
vn 0 -0.9999999 0
vn 0 -0.9999999 0
vn 0 -0.9999999 0
vn 0 0.9999999 0
vn 0 0.9999999 0
vn 0 0.9999999 0
vn 0 -0.9999999 0
vn 0 -0.9999999 0
vn 0 -0.9999999 0
vn 0 1 0
vn 0 1 0
vn 0 1 0
vn 0 -0.9999999 0
vn 0 -0.9999999 0
vn 0 -0.9999999 0
vn 0 0.9999999 0
vn 0 0.9999999 0
vn 0 0.9999999 0
vn 0 -0.9999999 0
vn 0 -0.9999999 0
vn 0 -0.9999999 0
vn 0 1 0
vn 0 1 0
vn 0 1 0
vn -0.6334392 -0.7279505 -0.2623792
vn -0.6334392 -0.7279506 -0.2623792
vn -0.6334392 -0.7279505 -0.2623792
vn -0.6334392 -0.7279505 -0.2623792
vn -0.6334392 -0.7279505 0.2623792
vn -0.6334392 -0.7279505 0.2623791
vn -0.6334392 -0.7279505 0.2623792
vn -0.6334392 -0.7279505 0.2623792
vn -0.2623791 -0.7279506 -0.6334392
vn -0.2623791 -0.7279505 -0.6334392
vn -0.2623791 -0.7279505 -0.6334392
vn -0.2623791 -0.7279506 -0.6334392
vn 0.2623792 -0.7279505 -0.6334393
vn 0.2623791 -0.7279505 -0.6334392
vn 0.2623791 -0.7279505 -0.6334392
vn 0.2623792 -0.7279505 -0.6334393
vn 0.6334392 -0.7279506 -0.2623791
vn 0.6334392 -0.7279505 -0.2623791
vn 0.6334392 -0.7279505 -0.2623791
vn 0.6334392 -0.7279506 -0.2623791
vn 0.6334393 -0.7279505 0.2623791
vn 0.6334392 -0.7279505 0.2623791
vn 0.6334392 -0.7279505 0.2623791
vn 0.6334393 -0.7279505 0.2623791
vn 0.2623792 -0.7279505 0.6334392
vn 0.2623791 -0.7279504 0.6334392
vn 0.2623792 -0.7279505 0.6334392
vn 0.2623792 -0.7279505 0.6334392
vn -0.2623791 -0.7279505 0.6334392
vn -0.2623791 -0.7279505 0.6334392
vn -0.2623791 -0.7279505 0.6334392
vn -0.2623791 -0.7279505 0.6334392
vn -0.9238794 0 -0.3826835
vn -0.9238794 0 -0.3826835
vn -0.9238794 0 -0.3826835
vn -0.9238794 0 -0.3826835
vn -0.9238796 0 0.3826835
vn -0.9238796 0 0.3826835
vn -0.9238796 0 0.3826835
vn -0.9238796 0 0.3826835
vn -0.3826834 0 -0.9238795
vn -0.3826834 0 -0.9238795
vn -0.3826834 0 -0.9238795
vn -0.3826834 0 -0.9238795
vn 0.3826835 0 -0.9238795
vn 0.3826835 0 -0.9238795
vn 0.3826835 0 -0.9238795
vn 0.3826835 0 -0.9238795
vn 0.9238796 0 -0.3826835
vn 0.9238796 0 -0.3826835
vn 0.9238796 0 -0.3826835
vn 0.9238796 0 -0.3826835
vn 0.9238795 0 0.3826834
vn 0.9238795 0 0.3826834
vn 0.9238795 0 0.3826834
vn 0.9238795 0 0.3826834
vn 0.3826835 0 0.9238796
vn 0.3826835 0 0.9238796
vn 0.3826835 0 0.9238796
vn 0.3826835 0 0.9238796
vn -0.3826834 0 0.9238795
vn -0.3826834 0 0.9238795
vn -0.3826834 0 0.9238795
vn -0.3826834 0 0.9238795
vn -0.6642715 0.6950077 -0.2751503
vn -0.6642715 0.6950076 -0.2751504
vn -0.6642714 0.6950078 -0.2751503
vn -0.6642715 0.6950077 -0.2751503
vn -0.6642715 0.6950076 0.2751503
vn -0.6642714 0.6950077 0.2751503
vn -0.6642717 0.6950076 0.2751503
vn -0.6642715 0.6950076 0.2751503
vn -0.2751502 0.6950077 -0.6642715
vn -0.2751502 0.6950079 -0.6642713
vn -0.2751503 0.6950075 -0.6642717
vn -0.2751502 0.6950077 -0.6642715
vn 0.2751503 0.6950077 -0.6642716
vn 0.2751504 0.6950076 -0.6642717
vn 0.2751502 0.6950078 -0.6642714
vn 0.2751503 0.6950077 -0.6642716
vn 0.6642716 0.6950076 -0.2751503
vn 0.6642715 0.6950078 -0.2751503
vn 0.6642717 0.6950075 -0.2751503
vn 0.6642716 0.6950076 -0.2751503
vn 0.6642716 0.6950076 0.2751502
vn 0.6642717 0.6950076 0.2751504
vn 0.6642714 0.6950078 0.2751502
vn 0.6642716 0.6950076 0.2751502
vn 0.2751503 0.6950077 0.6642714
vn 0.2751503 0.6950079 0.6642714
vn 0.2751504 0.6950076 0.6642717
vn 0.2751503 0.6950077 0.6642714
vn -0.2751503 0.6950077 0.6642715
vn -0.2751503 0.6950076 0.6642716
vn -0.2751502 0.6950079 0.6642715
vn -0.2751503 0.6950077 0.6642715

vt -0.1913417 0
vt -0.1913417 1
vt 0.1913417 0
vt 0.1913417 1
vt -0.1913417 0
vt -0.1913417 1
vt 0.1913417 0
vt 0.1913417 1
vt -0.1913417 0
vt -0.1913417 1
vt 0.1913417 0
vt 0.1913417 1
vt -0.1913417 0
vt -0.1913417 1
vt 0.1913418 0
vt 0.1913418 1
vt -0.1913417 0
vt -0.1913417 1
vt 0.1913417 0
vt 0.1913417 1
vt -0.1913417 0
vt -0.1913417 1
vt 0.1913418 0
vt 0.1913418 1
vt -0.1913417 0
vt -0.1913417 1
vt 0.1913417 0
vt 0.1913417 1
vt -0.1913418 0
vt -0.1913418 1
vt 0.1913418 0
vt 0.1913418 1
vt -0.5 0
vt 0 0
vt -0.3535534 0.3535534
vt 1.037911 2.295053E-12
vt 7.843061E-09 2.295053E-12
vt 0.7339141 0.7339141
vt -0.3535534 0.3535534
vt 0 0
vt 2.185569E-08 0.5
vt 0.7339141 0.7339141
vt 7.843061E-09 2.295053E-12
vt -3.752548E-08 1.037911
vt 2.185569E-08 0.5
vt 0 0
vt 0.3535534 0.3535534
vt -3.752548E-08 1.037911
vt 7.843061E-09 2.295053E-12
vt -0.7339141 0.7339141
vt 0.3535534 0.3535534
vt 0 0
vt 0.5 -4.371139E-08
vt -0.7339141 0.7339141
vt 7.843061E-09 2.295053E-12
vt -1.037911 -9.073479E-08
vt 0.5 -4.371139E-08
vt 0 0
vt 0.3535534 -0.3535534
vt -1.037911 -9.073479E-08
vt 7.843061E-09 2.295053E-12
vt -0.7339143 -0.7339141
vt 0.3535534 -0.3535534
vt 0 0
vt -5.96244E-09 -0.5
vt -0.7339143 -0.7339141
vt 7.843061E-09 2.295053E-12
vt 2.022003E-08 -1.037911
vt -5.96244E-09 -0.5
vt 0 0
vt -0.3535533 -0.3535534
vt 2.022003E-08 -1.037911
vt 7.843061E-09 2.295053E-12
vt 0.733914 -0.7339143
vt -0.3535533 -0.3535534
vt 0 0
vt -0.5 0
vt 0.733914 -0.7339143
vt 7.843061E-09 2.295053E-12
vt 1.037911 2.295053E-12
vt -1.033628 -0.1118159
vt -0.9231513 -0.4782059
vt -1.893744 -0.1118159
vt -1.639901 -0.9536735
vt -0.9231513 0.4782058
vt -1.033628 0.1118159
vt -1.639901 0.9536733
vt -1.893744 0.1118159
vt -0.6716897 -0.7935504
vt -0.339082 -0.9828085
vt -1.294768 -1.386487
vt -0.5305319 -1.821347
vt 0.3390821 -0.9828085
vt 0.6716899 -0.7935503
vt 0.530532 -1.821347
vt 1.294768 -1.386486
vt 0.9231513 -0.4782058
vt 1.033628 -0.1118159
vt 1.639901 -0.9536732
vt 1.893744 -0.111816
vt 1.033628 0.1118158
vt 0.9231513 0.4782058
vt 1.893744 0.1118158
vt 1.639901 0.9536734
vt 0.6716898 0.7935503
vt 0.3390821 0.9828085
vt 1.294768 1.386486
vt 0.5305321 1.821347
vt -0.339082 0.9828085
vt -0.6716898 0.7935503
vt -0.5305319 1.821347
vt -1.294768 1.386486
vt 0.4396478 1.564613
vt -0.4396476 1.564613
vt 0.4396478 3.429956
vt -0.4396476 3.429956
vt 0.4396476 1.564613
vt -0.4396477 1.564613
vt 0.4396476 3.429956
vt -0.4396477 3.429956
vt 0.4396475 1.564613
vt -0.4396476 1.564613
vt 0.4396475 3.429956
vt -0.4396476 3.429956
vt 0.4396477 1.564613
vt -0.4396476 1.564613
vt 0.4396477 3.429956
vt -0.4396476 3.429956
vt 0.4396475 1.564613
vt -0.4396476 1.564613
vt 0.4396475 3.429956
vt -0.4396476 3.429956
vt 0.4396477 1.564613
vt -0.4396476 1.564613
vt 0.4396477 3.429956
vt -0.4396476 3.429956
vt 0.4396475 1.564613
vt -0.4396476 1.564613
vt 0.4396475 3.429956
vt -0.4396476 3.429956
vt 0.4396477 1.564613
vt -0.4396476 1.564613
vt 0.4396477 3.429956
vt -0.4396476 3.429956
vt -1.539377 0.9006618
vt -1.782631 0.05568371
vt -1.692845 0.9006618
vt -1.912608 0.137282
vt -1.782632 -0.0556839
vt -1.539378 -0.9006619
vt -1.912609 -0.1372822
vt -1.692846 -0.9006619
vt -0.5072373 1.70985
vt -1.262561 1.259689
vt -0.6192098 1.8148
vt -1.301593 1.40811
vt 1.262561 1.259688
vt 0.5072364 1.709849
vt 1.301593 1.408109
vt 0.619209 1.814799
vt 1.782632 0.05568387
vt 1.539378 0.9006618
vt 1.912609 0.1372822
vt 1.692846 0.9006617
vt 1.539377 -0.9006617
vt 1.782631 -0.0556836
vt 1.692845 -0.9006617
vt 1.912607 -0.1372819
vt 0.5072374 -1.70985
vt 1.262562 -1.259688
vt 0.6192099 -1.814799
vt 1.301594 -1.408109
vt -1.262561 -1.259688
vt -0.5072364 -1.709849
vt -1.301593 -1.408109
vt -0.6192089 -1.814799

g MYCokeFurnace_0
usemtl Default_Prototype
f 3/3/3 4/4/4 2/2/2 1/1/1
f 7/7/7 8/8/8 6/6/6 5/5/5
f 11/11/11 12/12/12 10/10/10 9/9/9
f 15/15/15 16/16/16 14/14/14 13/13/13
f 19/19/19 20/20/20 18/18/18 17/17/17
f 23/23/23 24/24/24 22/22/22 21/21/21
f 27/27/27 28/28/28 26/26/26 25/25/25
f 31/31/31 32/32/32 30/30/30 29/29/29
f 83/83/83 84/84/84 82/82/82 81/81/81
f 87/87/87 88/88/88 86/86/86 85/85/85
f 91/91/91 92/92/92 90/90/90 89/89/89
f 95/95/95 96/96/96 94/94/94 93/93/93
f 99/99/99 100/100/100 98/98/98 97/97/97
f 103/103/103 104/104/104 102/102/102 101/101/101
f 107/107/107 108/108/108 106/106/106 105/105/105
f 111/111/111 112/112/112 110/110/110 109/109/109
f 115/115/115 116/116/116 114/114/114 113/113/113
f 119/119/119 120/120/120 118/118/118 117/117/117
f 123/123/123 124/124/124 122/122/122 121/121/121
f 127/127/127 128/128/128 126/126/126 125/125/125
f 131/131/131 132/132/132 130/130/130 129/129/129
f 135/135/135 136/136/136 134/134/134 133/133/133
f 139/139/139 140/140/140 138/138/138 137/137/137
f 143/143/143 144/144/144 142/142/142 141/141/141
f 147/147/147 148/148/148 146/146/146 145/145/145
f 151/151/151 152/152/152 150/150/150 149/149/149
f 155/155/155 156/156/156 154/154/154 153/153/153
f 159/159/159 160/160/160 158/158/158 157/157/157
f 163/163/163 164/164/164 162/162/162 161/161/161
f 167/167/167 168/168/168 166/166/166 165/165/165
f 171/171/171 172/172/172 170/170/170 169/169/169
f 175/175/175 176/176/176 174/174/174 173/173/173

g MYCokeFurnace_1
usemtl Default_Prototype
f 33/33/33 34/34/34 35/35/35
f 39/39/39 40/40/40 41/41/41
f 45/45/45 46/46/46 47/47/47
f 51/51/51 52/52/52 53/53/53
f 57/57/57 58/58/58 59/59/59
f 63/63/63 64/64/64 65/65/65
f 69/69/69 70/70/70 71/71/71
f 75/75/75 76/76/76 77/77/77
f 38/38/38 37/37/37 36/36/36
f 44/44/44 43/43/43 42/42/42
f 50/50/50 49/49/49 48/48/48
f 56/56/56 55/55/55 54/54/54
f 62/62/62 61/61/61 60/60/60
f 68/68/68 67/67/67 66/66/66
f 74/74/74 73/73/73 72/72/72
f 80/80/80 79/79/79 78/78/78

