# Exported from ProBuilder
# http://www.procore3d.com/probuilder
# 10/28/2018 6:40:41 PM

mtllib ./MYCokeBase.mtl
o MYCokeBase

g MYCokeBase
v -1.5 0 0
v -1.5 1 0
v -1.06066 0 1.06066
v -1.06066 1 1.06066
v -1.06066 0 1.06066
v -1.06066 1 1.06066
v 6.556708E-08 0 1.5
v 6.556708E-08 1 1.5
v 6.556708E-08 0 1.5
v 6.556708E-08 1 1.5
v 1.06066 0 1.06066
v 1.06066 1 1.06066
v 1.06066 0 1.06066
v 1.06066 1 1.06066
v 1.5 0 -1.311342E-07
v 1.5 1 -1.311342E-07
v 1.5 0 -1.311342E-07
v 1.5 1 -1.311342E-07
v 1.06066 0 -1.06066
v 1.06066 1 -1.06066
v 1.06066 0 -1.06066
v 1.06066 1 -1.06066
v -1.788732E-08 0 -1.5
v -1.788732E-08 1 -1.5
v -1.788732E-08 0 -1.5
v -1.788732E-08 1 -1.5
v -1.06066 0 -1.06066
v -1.06066 1 -1.06066
v -1.06066 0 -1.06066
v -1.06066 1 -1.06066
v -1.5 0 0
v -1.5 1 0
v -1.5 0 0
v 0 0 0
v -1.06066 0 1.06066
v -1.543801 4.526423 4.568555E-09
v -3.175706E-09 4.526423 4.568555E-09
v -1.091632 4.526423 1.091632
v -1.06066 0 1.06066
v 0 0 0
v 6.556708E-08 0 1.5
v -1.091632 4.526423 1.091632
v -3.175706E-09 4.526423 4.568555E-09
v 6.430597E-08 4.526423 1.543801
v 6.556708E-08 0 1.5
v 0 0 0
v 1.06066 0 1.06066
v 6.430597E-08 4.526423 1.543801
v -3.175706E-09 4.526423 4.568555E-09
v 1.091632 4.526423 1.091632
v 1.06066 0 1.06066
v 0 0 0
v 1.5 0 -1.311342E-07
v 1.091632 4.526423 1.091632
v -3.175706E-09 4.526423 4.568555E-09
v 1.543801 4.526423 -1.303948E-07
v 1.5 0 -1.311342E-07
v 0 0 0
v 1.06066 0 -1.06066
v 1.543801 4.526423 -1.303948E-07
v -3.175706E-09 4.526423 4.568555E-09
v 1.091632 4.526423 -1.091632
v 1.06066 0 -1.06066
v 0 0 0
v -1.788732E-08 0 -1.5
v 1.091632 4.526423 -1.091632
v -3.175706E-09 4.526423 4.568555E-09
v -2.158534E-08 4.526423 -1.543801
v -1.788732E-08 0 -1.5
v 0 0 0
v -1.06066 0 -1.06066
v -2.158534E-08 4.526423 -1.543801
v -3.175706E-09 4.526423 4.568555E-09
v -1.091632 4.526423 -1.091632
v -1.06066 0 -1.06066
v 0 0 0
v -1.5 0 0
v -1.091632 4.526423 -1.091632
v -3.175706E-09 4.526423 4.568555E-09
v -1.543801 4.526423 4.568555E-09
v -1.5 1 0
v -1.06066 1 -1.06066
v -2.1 1.967964 1.589457E-08
v -1.484924 1.967964 -1.484924
v -1.06066 1 1.06066
v -1.5 1 0
v -1.484924 1.967964 1.484924
v -2.1 1.967964 1.589457E-08
v -1.06066 1 -1.06066
v -1.788732E-08 1 -1.5
v -1.484924 1.967964 -1.484924
v -3.895E-08 1.967964 -2.1
v -1.788732E-08 1 -1.5
v 1.06066 1 -1.06066
v -3.895E-08 1.967964 -2.1
v 1.484924 1.967964 -1.484924
v 1.06066 1 -1.06066
v 1.5 1 -1.311342E-07
v 1.484924 1.967964 -1.484924
v 2.1 1.967964 -1.676932E-07
v 1.5 1 -1.311342E-07
v 1.06066 1 1.06066
v 2.1 1.967964 -1.676932E-07
v 1.484924 1.967964 1.484924
v 1.06066 1 1.06066
v 6.556708E-08 1 1.5
v 1.484924 1.967964 1.484924
v 7.788616E-08 1.967964 2.1
v 6.556708E-08 1 1.5
v -1.06066 1 1.06066
v 7.788616E-08 1.967964 2.1
v -1.484924 1.967964 1.484924
v -2.1 1.967964 1.589457E-08
v -1.484924 1.967964 -1.484924
v -1.543801 4.526423 4.568555E-09
v -1.091632 4.526423 -1.091632
v -1.484924 1.967964 1.484924
v -2.1 1.967964 1.589457E-08
v -1.091632 4.526423 1.091632
v -1.543801 4.526423 4.568555E-09
v -1.484924 1.967964 -1.484924
v -3.895E-08 1.967964 -2.1
v -1.091632 4.526423 -1.091632
v -2.158534E-08 4.526423 -1.543801
v -3.895E-08 1.967964 -2.1
v 1.484924 1.967964 -1.484924
v -2.158534E-08 4.526423 -1.543801
v 1.091632 4.526423 -1.091632
v 1.484924 1.967964 -1.484924
v 2.1 1.967964 -1.676932E-07
v 1.091632 4.526423 -1.091632
v 1.543801 4.526423 -1.303948E-07
v 2.1 1.967964 -1.676932E-07
v 1.484924 1.967964 1.484924
v 1.543801 4.526423 -1.303948E-07
v 1.091632 4.526423 1.091632
v 1.484924 1.967964 1.484924
v 7.788616E-08 1.967964 2.1
v 1.091632 4.526423 1.091632
v 6.430597E-08 4.526423 1.543801
v 7.788616E-08 1.967964 2.1
v -1.484924 1.967964 1.484924
v 6.430597E-08 4.526423 1.543801
v -1.091632 4.526423 1.091632

vn -0.9238795 0 -1.490116E-08
vn -0.9238795 0 -1.490116E-08
vn -0.6532815 0 0.6532815
vn -0.6532815 0 0.6532815
vn -0.6532815 0 0.6532815
vn -0.6532815 0 0.6532815
vn 2.980232E-08 0 0.9238795
vn 2.980232E-08 0 0.9238795
vn 2.980232E-08 0 0.9238795
vn 2.980232E-08 0 0.9238795
vn 0.6532816 0 0.6532815
vn 0.6532816 0 0.6532815
vn 0.6532816 0 0.6532815
vn 0.6532816 0 0.6532815
vn 0.9238796 0 1.490116E-08
vn 0.9238796 0 1.490116E-08
vn 0.9238796 0 1.490116E-08
vn 0.9238796 0 1.490116E-08
vn 0.6532815 0 -0.6532815
vn 0.6532815 0 -0.6532815
vn 0.6532815 0 -0.6532815
vn 0.6532815 0 -0.6532815
vn 5.960464E-08 0 -0.9238796
vn 5.960464E-08 0 -0.9238796
vn 5.960464E-08 0 -0.9238796
vn 5.960464E-08 0 -0.9238796
vn -0.6532815 0 -0.6532815
vn -0.6532815 0 -0.6532815
vn -0.6532815 0 -0.6532815
vn -0.6532815 0 -0.6532815
vn -0.9238795 0 -1.490116E-08
vn -0.9238795 0 -1.490116E-08
vn 0 -1 0
vn 0 -1 0
vn 0 -1 0
vn 0 1 0
vn 0 1 0
vn 0 1 0
vn 0 -1 0
vn 0 -1 0
vn 0 -1 0
vn 0 1 0
vn 0 1 0
vn 0 1 0
vn 0 -1 0
vn 0 -1 0
vn 0 -1 0
vn 0 1 0
vn 0 1 0
vn 0 1 0
vn 0 -1 0
vn 0 -1 0
vn 0 -1 0
vn 0 1 0
vn 0 1 0
vn 0 1 0
vn 0 -1 0
vn 0 -1 0
vn 0 -1 0
vn 0 0.9999999 0
vn 0 0.9999999 0
vn 0 0.9999999 0
vn 0 -1 0
vn 0 -1 0
vn 0 -1 0
vn 0 1 0
vn 0 1 0
vn 0 1 0
vn 0 -1 0
vn 0 -1 0
vn 0 -1 0
vn 0 1 0
vn 0 1 0
vn 0 1 0
vn 0 -1 0
vn 0 -1 0
vn 0 -1 0
vn 0 1 0
vn 0 1 0
vn 0 1 0
vn -0.8017217 -0.4969533 -0.3320841
vn -0.8017216 -0.4969532 -0.3320841
vn -0.8017216 -0.4969532 -0.3320841
vn -0.8017217 -0.4969533 -0.3320841
vn -0.8017216 -0.4969532 0.332084
vn -0.8017217 -0.4969532 0.3320841
vn -0.8017217 -0.4969533 0.332084
vn -0.8017216 -0.4969532 0.332084
vn -0.3320839 -0.4969533 -0.8017217
vn -0.3320839 -0.4969533 -0.8017216
vn -0.3320839 -0.4969533 -0.8017218
vn -0.3320839 -0.4969533 -0.8017217
vn 0.332084 -0.4969533 -0.8017216
vn 0.332084 -0.4969533 -0.8017216
vn 0.3320839 -0.4969532 -0.8017217
vn 0.332084 -0.4969533 -0.8017216
vn 0.8017217 -0.4969533 -0.332084
vn 0.8017216 -0.4969533 -0.332084
vn 0.8017217 -0.4969533 -0.332084
vn 0.8017217 -0.4969533 -0.332084
vn 0.8017217 -0.4969533 0.332084
vn 0.8017216 -0.4969533 0.332084
vn 0.8017217 -0.4969532 0.3320839
vn 0.8017217 -0.4969533 0.332084
vn 0.332084 -0.4969532 0.8017216
vn 0.3320841 -0.4969532 0.8017216
vn 0.332084 -0.4969533 0.8017216
vn 0.332084 -0.4969532 0.8017216
vn -0.332084 -0.4969533 0.8017216
vn -0.332084 -0.4969533 0.8017216
vn -0.3320839 -0.4969532 0.8017217
vn -0.332084 -0.4969533 0.8017216
vn -0.9057905 0.1969153 -0.3751907
vn -0.9057904 0.1969153 -0.3751908
vn -0.9057904 0.1969153 -0.3751907
vn -0.9057905 0.1969153 -0.3751907
vn -0.9057904 0.1969153 0.3751906
vn -0.9057905 0.1969153 0.3751907
vn -0.9057904 0.1969153 0.3751906
vn -0.9057904 0.1969153 0.3751906
vn -0.3751906 0.1969153 -0.9057904
vn -0.3751906 0.1969153 -0.9057904
vn -0.3751906 0.1969153 -0.9057904
vn -0.3751906 0.1969153 -0.9057904
vn 0.3751906 0.1969153 -0.9057904
vn 0.3751907 0.1969153 -0.9057905
vn 0.3751906 0.1969153 -0.9057904
vn 0.3751906 0.1969153 -0.9057904
vn 0.9057904 0.1969153 -0.3751906
vn 0.9057904 0.1969153 -0.3751906
vn 0.9057904 0.1969153 -0.3751907
vn 0.9057904 0.1969153 -0.3751906
vn 0.9057905 0.1969153 0.3751906
vn 0.9057905 0.1969153 0.3751907
vn 0.9057905 0.1969153 0.3751906
vn 0.9057905 0.1969153 0.3751906
vn 0.3751907 0.1969153 0.9057904
vn 0.3751907 0.1969153 0.9057904
vn 0.3751907 0.1969153 0.9057904
vn 0.3751907 0.1969153 0.9057904
vn -0.3751906 0.1969153 0.9057905
vn -0.3751907 0.1969153 0.9057905
vn -0.3751906 0.1969153 0.9057905
vn -0.3751906 0.1969153 0.9057905

vt -0.5740252 0
vt -0.5740252 1
vt 0.5740251 0
vt 0.5740251 1
vt -0.5740252 0
vt -0.5740252 1
vt 0.5740253 0
vt 0.5740253 1
vt -0.5740253 0
vt -0.5740253 1
vt 0.574025 0
vt 0.574025 1
vt -0.5740252 0
vt -0.5740252 1
vt 0.5740253 0
vt 0.5740253 1
vt -0.574025 0
vt -0.574025 1
vt 0.5740251 0
vt 0.5740251 1
vt -0.5740252 0
vt -0.5740252 1
vt 0.5740252 0
vt 0.5740252 1
vt -0.574025 0
vt -0.574025 1
vt 0.574025 0
vt 0.574025 1
vt -0.5740253 0
vt -0.5740253 1
vt 0.5740252 0
vt 0.5740252 1
vt -1.5 0
vt 0 0
vt -1.06066 1.06066
vt 1.543801 4.568555E-09
vt 3.175706E-09 4.568555E-09
vt 1.091632 1.091632
vt -1.06066 1.06066
vt 0 0
vt 6.556708E-08 1.5
vt 1.091632 1.091632
vt 3.175706E-09 4.568555E-09
vt -6.430597E-08 1.543801
vt 6.556708E-08 1.5
vt 0 0
vt 1.06066 1.06066
vt -6.430597E-08 1.543801
vt 3.175706E-09 4.568555E-09
vt -1.091632 1.091632
vt 1.06066 1.06066
vt 0 0
vt 1.5 -1.311342E-07
vt -1.091632 1.091632
vt 3.175706E-09 4.568555E-09
vt -1.543801 -1.303948E-07
vt 1.5 -1.311342E-07
vt 0 0
vt 1.06066 -1.06066
vt -1.543801 -1.303948E-07
vt 3.175706E-09 4.568555E-09
vt -1.091632 -1.091632
vt 1.06066 -1.06066
vt 0 0
vt -1.788732E-08 -1.5
vt -1.091632 -1.091632
vt 3.175706E-09 4.568555E-09
vt 2.158534E-08 -1.543801
vt -1.788732E-08 -1.5
vt 0 0
vt -1.06066 -1.06066
vt 2.158534E-08 -1.543801
vt 3.175706E-09 4.568555E-09
vt 1.091632 -1.091632
vt -1.06066 -1.06066
vt 0 0
vt -1.5 0
vt 1.091632 -1.091632
vt 3.175706E-09 4.568555E-09
vt 1.543801 4.568555E-09
vt 0.5740253 1.556465
vt -0.5740253 1.556465
vt 0.8036354 2.671917
vt -0.8036354 2.671917
vt 0.574025 1.556465
vt -0.5740252 1.556465
vt 0.8036351 2.671917
vt -0.8036352 2.671917
vt 0.574025 1.556465
vt -0.574025 1.556465
vt 0.8036351 2.671917
vt -0.8036349 2.671917
vt 0.5740252 1.556465
vt -0.5740252 1.556465
vt 0.8036352 2.671917
vt -0.8036353 2.671917
vt 0.5740251 1.556465
vt -0.574025 1.556465
vt 0.8036352 2.671917
vt -0.8036351 2.671917
vt 0.5740253 1.556465
vt -0.5740252 1.556465
vt 0.8036354 2.671917
vt -0.8036352 2.671917
vt 0.574025 1.556465
vt -0.5740252 1.556465
vt 0.803635 2.671917
vt -0.8036353 2.671917
vt 0.5740253 1.556465
vt -0.5740252 1.556465
vt 0.8036353 2.671917
vt -0.8036352 2.671917
vt 0.8036354 1.547388
vt -0.8036354 1.547388
vt 0.5907872 4.15694
vt -0.5907872 4.15694
vt 0.8036352 1.547388
vt -0.8036351 1.547388
vt 0.5907871 4.15694
vt -0.5907871 4.15694
vt 0.8036351 1.547388
vt -0.8036349 1.547388
vt 0.590787 4.15694
vt -0.5907869 4.15694
vt 0.8036351 1.547388
vt -0.8036354 1.547388
vt 0.5907871 4.15694
vt -0.5907872 4.15694
vt 0.8036353 1.547388
vt -0.8036349 1.547388
vt 0.5907872 4.15694
vt -0.5907869 4.15694
vt 0.8036352 1.547388
vt -0.8036353 1.547388
vt 0.5907872 4.15694
vt -0.5907872 4.15694
vt 0.8036351 1.547388
vt -0.8036351 1.547388
vt 0.5907871 4.15694
vt -0.5907871 4.15694
vt 0.8036352 1.547388
vt -0.8036353 1.547388
vt 0.5907871 4.15694
vt -0.5907872 4.15694

g MYCokeBase_0
usemtl Default_Prototype
f 3/3/3 4/4/4 2/2/2 1/1/1
f 7/7/7 8/8/8 6/6/6 5/5/5
f 11/11/11 12/12/12 10/10/10 9/9/9
f 15/15/15 16/16/16 14/14/14 13/13/13
f 19/19/19 20/20/20 18/18/18 17/17/17
f 23/23/23 24/24/24 22/22/22 21/21/21
f 27/27/27 28/28/28 26/26/26 25/25/25
f 31/31/31 32/32/32 30/30/30 29/29/29
f 83/83/83 84/84/84 82/82/82 81/81/81
f 87/87/87 88/88/88 86/86/86 85/85/85
f 91/91/91 92/92/92 90/90/90 89/89/89
f 95/95/95 96/96/96 94/94/94 93/93/93
f 99/99/99 100/100/100 98/98/98 97/97/97
f 103/103/103 104/104/104 102/102/102 101/101/101
f 107/107/107 108/108/108 106/106/106 105/105/105
f 111/111/111 112/112/112 110/110/110 109/109/109
f 115/115/115 116/116/116 114/114/114 113/113/113
f 119/119/119 120/120/120 118/118/118 117/117/117
f 123/123/123 124/124/124 122/122/122 121/121/121
f 127/127/127 128/128/128 126/126/126 125/125/125
f 131/131/131 132/132/132 130/130/130 129/129/129
f 135/135/135 136/136/136 134/134/134 133/133/133
f 139/139/139 140/140/140 138/138/138 137/137/137
f 143/143/143 144/144/144 142/142/142 141/141/141

g MYCokeBase_1
usemtl Default_Prototype
f 33/33/33 34/34/34 35/35/35
f 39/39/39 40/40/40 41/41/41
f 45/45/45 46/46/46 47/47/47
f 51/51/51 52/52/52 53/53/53
f 57/57/57 58/58/58 59/59/59
f 63/63/63 64/64/64 65/65/65
f 69/69/69 70/70/70 71/71/71
f 75/75/75 76/76/76 77/77/77
f 38/38/38 37/37/37 36/36/36
f 44/44/44 43/43/43 42/42/42
f 50/50/50 49/49/49 48/48/48
f 56/56/56 55/55/55 54/54/54
f 62/62/62 61/61/61 60/60/60
f 68/68/68 67/67/67 66/66/66
f 74/74/74 73/73/73 72/72/72
f 80/80/80 79/79/79 78/78/78

