# Exported from ProBuilder
# http://www.procore3d.com/probuilder
# 10/24/2018 10:55:36 PM

mtllib ./MYFlyingPan.mtl
o MYFlyingPan

g MYFlyingPan
v -1.5 0 1
v -1.5 1 1
v -1.353553 0 1.353553
v -1.353553 1 1.353553
v -1.353553 0 1.353553
v -1.353553 1 1.353553
v -1 0 1.5
v -1 1 1.5
v -1 0 1.5
v -1 1 1.5
v -0.6464466 0 1.353553
v -0.6464466 1 1.353553
v -0.6464466 0 1.353553
v -0.6464466 1 1.353553
v -0.5 0 0.9999999
v -0.5 1 0.9999999
v -0.5 0 0.9999999
v -0.5 1 0.9999999
v -0.6464466 0 0.6464466
v -0.6464466 1 0.6464466
v -0.6464466 0 0.6464466
v -0.6464466 1 0.6464466
v -1 0 0.5
v -1 1 0.5
v -1 0 0.5
v -1 1 0.5
v -1.353553 0 0.6464466
v -1.353553 1 0.6464466
v -1.353553 0 0.6464466
v -1.353553 1 0.6464466
v -1.5 0 1
v -1.5 1 1
v -1.5 0 1
v -1 0 1
v -1.353553 0 1.353553
v -1.5 1 1
v -1 1 1
v -1.353553 1 1.353553
v -1.353553 0 1.353553
v -1 0 1
v -1 0 1.5
v -1.353553 1 1.353553
v -1 1 1
v -1 1 1.5
v -1 0 1.5
v -1 0 1
v -0.6464466 0 1.353553
v -1 1 1.5
v -1 1 1
v -0.6464466 1 1.353553
v -0.6464466 0 1.353553
v -1 0 1
v -0.5 0 0.9999999
v -0.6464466 1 1.353553
v -1 1 1
v -0.5 1 0.9999999
v -0.5 0 0.9999999
v -1 0 1
v -0.6464466 0 0.6464466
v -0.5 1 0.9999999
v -1 1 1
v -0.6464466 1 0.6464466
v -0.6464466 0 0.6464466
v -1 0 1
v -1 0 0.5
v -0.6464466 1 0.6464466
v -1 1 1
v -1 1 0.5
v -1 0 0.5
v -1 0 1
v -1.353553 0 0.6464466
v -1 1 0.5
v -1 1 1
v -1.353553 1 0.6464466
v -1.353553 0 0.6464466
v -1 0 1
v -1.5 0 1
v -1.353553 1 0.6464466
v -1 1 1
v -1.5 1 1

vn -0.9238795 0 -2.980232E-08
vn -0.9238795 0 -2.980232E-08
vn -0.6532815 0 0.6532815
vn -0.6532815 0 0.6532815
vn -0.6532815 0 0.6532815
vn -0.6532815 0 0.6532815
vn 2.980232E-08 0 0.9238796
vn 2.980232E-08 0 0.9238796
vn 2.980232E-08 0 0.9238796
vn 2.980232E-08 0 0.9238796
vn 0.6532815 0 0.6532815
vn 0.6532815 0 0.6532815
vn 0.6532815 0 0.6532815
vn 0.6532815 0 0.6532815
vn 0.9238795 0 0
vn 0.9238795 0 0
vn 0.9238795 0 0
vn 0.9238795 0 0
vn 0.6532815 0 -0.6532815
vn 0.6532815 0 -0.6532815
vn 0.6532815 0 -0.6532815
vn 0.6532815 0 -0.6532815
vn 8.940697E-08 0 -0.9238795
vn 8.940697E-08 0 -0.9238795
vn 8.940697E-08 0 -0.9238795
vn 8.940697E-08 0 -0.9238795
vn -0.6532814 0 -0.6532815
vn -0.6532814 0 -0.6532815
vn -0.6532814 0 -0.6532815
vn -0.6532814 0 -0.6532815
vn -0.9238795 0 -2.980232E-08
vn -0.9238795 0 -2.980232E-08
vn 0 -0.9999999 0
vn 0 -0.9999999 0
vn 0 -0.9999999 0
vn 0 0.9999999 0
vn 0 0.9999999 0
vn 0 0.9999999 0
vn 0 -0.9999999 0
vn 0 -0.9999999 0
vn 0 -0.9999999 0
vn 0 0.9999999 0
vn 0 0.9999999 0
vn 0 0.9999999 0
vn 0 -0.9999999 0
vn 0 -0.9999999 0
vn 0 -0.9999999 0
vn 0 0.9999999 0
vn 0 0.9999999 0
vn 0 0.9999999 0
vn 0 -0.9999999 0
vn 0 -0.9999999 0
vn 0 -0.9999999 0
vn 0 0.9999999 0
vn 0 0.9999999 0
vn 0 0.9999999 0
vn 0 -0.9999999 0
vn 0 -0.9999999 0
vn 0 -0.9999999 0
vn 0 0.9999999 0
vn 0 0.9999999 0
vn 0 0.9999999 0
vn 0 -0.9999999 0
vn 0 -0.9999999 0
vn 0 -0.9999999 0
vn 0 0.9999999 0
vn 0 0.9999999 0
vn 0 0.9999999 0
vn 0 -0.9999999 0
vn 0 -0.9999999 0
vn 0 -0.9999999 0
vn 0 0.9999999 0
vn 0 0.9999999 0
vn 0 0.9999999 0
vn 0 -0.9999999 0
vn 0 -0.9999999 0
vn 0 -0.9999999 0
vn 0 0.9999999 0
vn 0 0.9999999 0
vn 0 0.9999999 0

vt -0.1913417 0
vt -0.1913417 1
vt 0.1913417 0
vt 0.1913417 1
vt -0.1913417 0
vt -0.1913417 1
vt 0.1913417 0
vt 0.1913417 1
vt -0.1913417 0
vt -0.1913417 1
vt 0.1913417 0
vt 0.1913417 1
vt -0.1913417 0
vt -0.1913417 1
vt 0.1913418 0
vt 0.1913418 1
vt -0.1913417 0
vt -0.1913417 1
vt 0.1913417 0
vt 0.1913417 1
vt -0.1913417 0
vt -0.1913417 1
vt 0.1913418 0
vt 0.1913418 1
vt -0.1913417 0
vt -0.1913417 1
vt 0.1913417 0
vt 0.1913417 1
vt -0.1913418 0
vt -0.1913418 1
vt 0.1913418 0
vt 0.1913418 1
vt -0.5 0
vt 0 0
vt -0.3535534 0.3535534
vt 0.5 0
vt 0 0
vt 0.3535534 0.3535534
vt -0.3535534 0.3535534
vt 0 0
vt 2.185569E-08 0.5
vt 0.3535534 0.3535534
vt 0 0
vt -2.185569E-08 0.5
vt 2.185569E-08 0.5
vt 0 0
vt 0.3535534 0.3535534
vt -2.185569E-08 0.5
vt 0 0
vt -0.3535534 0.3535534
vt 0.3535534 0.3535534
vt 0 0
vt 0.5 -4.371139E-08
vt -0.3535534 0.3535534
vt 0 0
vt -0.5 -4.371139E-08
vt 0.5 -4.371139E-08
vt 0 0
vt 0.3535534 -0.3535534
vt -0.5 -4.371139E-08
vt 0 0
vt -0.3535534 -0.3535534
vt 0.3535534 -0.3535534
vt 0 0
vt -5.96244E-09 -0.5
vt -0.3535534 -0.3535534
vt 0 0
vt 5.96244E-09 -0.5
vt -5.96244E-09 -0.5
vt 0 0
vt -0.3535533 -0.3535534
vt 5.96244E-09 -0.5
vt 0 0
vt 0.3535533 -0.3535534
vt -0.3535533 -0.3535534
vt 0 0
vt -0.5 0
vt 0.3535533 -0.3535534
vt 0 0
vt 0.5 0

g MYFlyingPan_0
usemtl Default_Prototype
f 3/3/3 4/4/4 2/2/2 1/1/1
f 7/7/7 8/8/8 6/6/6 5/5/5
f 11/11/11 12/12/12 10/10/10 9/9/9
f 15/15/15 16/16/16 14/14/14 13/13/13
f 19/19/19 20/20/20 18/18/18 17/17/17
f 23/23/23 24/24/24 22/22/22 21/21/21
f 27/27/27 28/28/28 26/26/26 25/25/25
f 31/31/31 32/32/32 30/30/30 29/29/29

g MYFlyingPan_1
usemtl Default_Prototype
f 33/33/33 34/34/34 35/35/35
f 39/39/39 40/40/40 41/41/41
f 45/45/45 46/46/46 47/47/47
f 51/51/51 52/52/52 53/53/53
f 57/57/57 58/58/58 59/59/59
f 63/63/63 64/64/64 65/65/65
f 69/69/69 70/70/70 71/71/71
f 75/75/75 76/76/76 77/77/77
f 38/38/38 37/37/37 36/36/36
f 44/44/44 43/43/43 42/42/42
f 50/50/50 49/49/49 48/48/48
f 56/56/56 55/55/55 54/54/54
f 62/62/62 61/61/61 60/60/60
f 68/68/68 67/67/67 66/66/66
f 74/74/74 73/73/73 72/72/72
f 80/80/80 79/79/79 78/78/78

